<?xml version="1.0" encoding="iso-8859-1"?>
<!-- Generator: Adobe Illustrator 19.0.0, SVG Export Plug-In . SVG Version: 6.00 Build 0)  -->
<svg version="1.1" id="Layer_1" xmlns="http://www.w3.org/2000/svg" xmlns:xlink="http://www.w3.org/1999/xlink" x="0px" y="0px"
	 viewBox="0 0 512 512" style="enable-background:new 0 0 512 512;" xml:space="preserve">
<g transform="translate(1 1)">
	<path style="fill:#FFFFFF;" d="M7.533,455.533H24.6V37.4H7.533V455.533z"/>
	<path style="fill:#FD9808;" d="M485.4,455.533h17.067V37.4H485.4V455.533z"/>
	<g>
		<path style="fill:#FCC309;" d="M255.853,63L255.853,63L255,71.533C255,68.973,255,65.56,255.853,63"/>
		<path style="fill:#FCC309;" d="M24.6,37.4v418.133h158.72c25.6,5.12,48.64,11.947,64.853,34.133L255,498.2l6.827-8.533
			c16.213-22.187,39.253-28.16,64.853-34.133H485.4V37.4h-31.573v375.467H326.68c-25.6,5.12-48.64,11.947-64.853,34.133L255,455.533
			L248.173,447c-16.213-22.187-39.253-28.16-64.853-34.133H56.173V37.4H24.6z"/>
	</g>
	<path style="fill:#FFDD09;" d="M255,455.533L248.173,447c-17.92-22.187-42.667-28.16-69.973-34.133H41.667V11.8H178.2
		c33.28,0,76.8,17.92,76.8,51.2V455.533z"/>
	<path style="fill:#FD9808;" d="M255,455.533l6.827-8.533c17.92-22.187,42.667-28.16,69.973-34.133h136.533V11.8h-153.6
		C281.453,11.8,255,38.253,255,71.533V455.533z"/>
	<path style="fill:#FFDD09;" d="M255,455.533l6.827-8.533c17.92-22.187,42.667-28.16,69.973-34.133h110.933V11.8h-128
		C281.453,11.8,255,38.253,255,71.533V455.533z"/>
	<path style="fill:#54C9FD;" d="M417.133,97.133L383,54.467l-34.133,42.667V11.8h68.267V97.133z"/>
	<path d="M255,464.067c-2.56,0-5.12-0.853-6.827-3.413l-6.827-8.533c-15.36-19.627-38.4-25.6-64-30.72H41.667
		c-5.12,0-8.533-3.413-8.533-8.533V11.8c0-5.12,3.413-8.533,8.533-8.533H178.2c34.133,0,85.333,18.773,85.333,59.733v392.533
		c0,3.413-2.56,6.827-5.973,7.68C256.707,464.067,255.853,464.067,255,464.067z M50.2,404.333h128c0.853,0,0.853,0,1.707,0
		c24.747,5.12,47.787,11.093,66.56,28.16V63c0-27.307-40.107-42.667-68.267-42.667h-128V404.333z"/>
	<path d="M255,464.067c-0.853,0-1.707,0-2.56-0.853c-3.413-0.853-5.973-4.267-5.973-7.68v-384c0-37.547,30.72-68.267,68.267-68.267
		h153.6c5.12,0,8.533,3.413,8.533,8.533v401.067c0,5.12-3.413,8.533-8.533,8.533h-135.68c-25.6,5.12-48.64,11.093-64,30.72
		l-6.827,8.533C260.12,463.213,257.56,464.067,255,464.067z M314.733,20.333c-28.16,0-51.2,23.04-51.2,51.2v360.96
		c18.773-17.067,41.813-23.04,66.56-28.16c0.853,0,0.853,0,1.707,0h128v-384H314.733z"/>
	<path d="M255,80.067c-5.12,0-8.533-3.413-8.533-8.533V63c0-5.12,3.413-8.533,8.533-8.533c2.56,0,5.12,0.853,6.827,2.56
		c1.707,1.707,2.56,4.267,2.56,6.827c-0.853,3.413-0.853,5.12-0.853,7.68C263.533,76.653,260.12,80.067,255,80.067z"/>
	<path d="M255,506.733c-2.56,0-5.12-0.853-6.827-3.413l-6.827-8.533c-15.36-19.627-38.4-25.6-64-30.72H7.533
		c-5.12,0-8.533-3.413-8.533-8.533V37.4c0-5.12,3.413-8.533,8.533-8.533h34.133c5.12,0,8.533,3.413,8.533,8.533v366.933h128
		c0.853,0,0.853,0,1.707,0c28.16,5.973,55.467,12.8,75.093,36.693l0,0l0,0c19.627-23.893,46.08-31.573,75.093-36.693
		c0.853,0,0.853,0,1.707,0h128V37.4c0-5.12,3.413-8.533,8.533-8.533h34.133c5.12,0,8.533,3.413,8.533,8.533v418.133
		c0,5.12-3.413,8.533-8.533,8.533H332.653c-25.6,5.12-48.64,11.093-64,30.72l-6.827,8.533C260.12,505.88,257.56,506.733,255,506.733
		z M16.067,447H178.2c0.853,0,0.853,0,1.707,0c28.16,5.973,55.467,12.8,75.093,36.693l0,0l0,0
		C274.627,459.8,301.08,452.12,330.093,447c0.853,0,0.853,0,1.707,0h162.133V45.933h-17.067v366.933c0,5.12-3.413,8.533-8.533,8.533
		h-135.68c-25.6,5.12-48.64,11.093-64,30.72l-6.827,8.533c-3.413,4.267-10.24,4.267-13.653,0l-6.827-8.533
		c-15.36-19.627-38.4-25.6-64-30.72H41.667c-5.12,0-8.533-3.413-8.533-8.533V45.933H16.067V447z"/>
	<path d="M255,506.733c-5.12,0-8.533-3.413-8.533-8.533v-42.667c0-5.12,3.413-8.533,8.533-8.533s8.533,3.413,8.533,8.533V498.2
		C263.533,503.32,260.12,506.733,255,506.733z"/>
	<path d="M127,97.133H92.867c-5.12,0-8.533-3.413-8.533-8.533s3.413-8.533,8.533-8.533H127c5.12,0,8.533,3.413,8.533,8.533
		S132.12,97.133,127,97.133z"/>
	<path d="M212.333,97.133h-51.2c-5.12,0-8.533-3.413-8.533-8.533s3.413-8.533,8.533-8.533h51.2c5.12,0,8.533,3.413,8.533,8.533
		S217.453,97.133,212.333,97.133z"/>
	<path d="M212.333,182.467h-51.2c-5.12,0-8.533-3.413-8.533-8.533c0-5.12,3.413-8.533,8.533-8.533h51.2
		c5.12,0,8.533,3.413,8.533,8.533C220.867,179.053,217.453,182.467,212.333,182.467z"/>
	<path d="M161.133,139.8H92.867c-5.12,0-8.533-3.413-8.533-8.533c0-5.12,3.413-8.533,8.533-8.533h68.267
		c5.12,0,8.533,3.413,8.533,8.533C169.667,136.387,166.253,139.8,161.133,139.8z"/>
	<path d="M127,182.467H92.867c-5.12,0-8.533-3.413-8.533-8.533c0-5.12,3.413-8.533,8.533-8.533H127c5.12,0,8.533,3.413,8.533,8.533
		C135.533,179.053,132.12,182.467,127,182.467z"/>
	<path d="M212.333,225.133H92.867c-5.12,0-8.533-3.413-8.533-8.533c0-5.12,3.413-8.533,8.533-8.533h119.467
		c5.12,0,8.533,3.413,8.533,8.533C220.867,221.72,217.453,225.133,212.333,225.133z"/>
	<path d="M161.133,344.6H92.867c-5.12,0-8.533-3.413-8.533-8.533s3.413-8.533,8.533-8.533h68.267c5.12,0,8.533,3.413,8.533,8.533
		S166.253,344.6,161.133,344.6z"/>
	<path d="M161.133,301.933H92.867c-5.12,0-8.533-3.413-8.533-8.533c0-5.12,3.413-8.533,8.533-8.533h68.267
		c5.12,0,8.533,3.413,8.533,8.533C169.667,298.52,166.253,301.933,161.133,301.933z"/>
	<path d="M314.733,97.133h-17.067c-5.12,0-8.533-3.413-8.533-8.533s3.413-8.533,8.533-8.533h17.067c5.12,0,8.533,3.413,8.533,8.533
		S319.853,97.133,314.733,97.133z"/>
	<path d="M331.8,139.8h-34.133c-5.12,0-8.533-3.413-8.533-8.533c0-5.12,3.413-8.533,8.533-8.533H331.8
		c5.12,0,8.533,3.413,8.533,8.533C340.333,136.387,336.92,139.8,331.8,139.8z"/>
	<path d="M417.133,139.8h-51.2c-5.12,0-8.533-3.413-8.533-8.533c0-5.12,3.413-8.533,8.533-8.533h51.2
		c5.12,0,8.533,3.413,8.533,8.533C425.667,136.387,422.253,139.8,417.133,139.8z"/>
	<path d="M348.867,267.8h-51.2c-5.12,0-8.533-3.413-8.533-8.533c0-5.12,3.413-8.533,8.533-8.533h51.2
		c5.12,0,8.533,3.413,8.533,8.533C357.4,264.387,353.987,267.8,348.867,267.8z"/>
	<path d="M417.133,267.8H383c-5.12,0-8.533-3.413-8.533-8.533c0-5.12,3.413-8.533,8.533-8.533h34.133
		c5.12,0,8.533,3.413,8.533,8.533C425.667,264.387,422.253,267.8,417.133,267.8z"/>
	<path d="M417.133,182.467h-68.267c-5.12,0-8.533-3.413-8.533-8.533c0-5.12,3.413-8.533,8.533-8.533h68.267
		c5.12,0,8.533,3.413,8.533,8.533C425.667,179.053,422.253,182.467,417.133,182.467z"/>
	<path d="M417.133,105.667c-2.56,0-5.12-0.853-6.827-3.413L383,68.12l-27.307,34.133c-2.56,2.56-5.973,4.267-9.387,2.56
		c-3.413-0.853-5.973-4.267-5.973-7.68V11.8c0-5.12,3.413-8.533,8.533-8.533h68.267c5.12,0,8.533,3.413,8.533,8.533v85.333
		c0,3.413-2.56,6.827-5.973,7.68C418.84,105.667,417.987,105.667,417.133,105.667z M383,45.933c2.56,0,5.12,0.853,6.827,3.413
		L408.6,73.24V20.333h-51.2v52.053l18.773-23.893C377.88,46.787,380.44,45.933,383,45.933z"/>
	<path d="M212.333,139.8h-17.067c-5.12,0-8.533-3.413-8.533-8.533c0-5.12,3.413-8.533,8.533-8.533h17.067
		c5.12,0,8.533,3.413,8.533,8.533C220.867,136.387,217.453,139.8,212.333,139.8z"/>
	<path d="M314.733,182.467h-17.067c-5.12,0-8.533-3.413-8.533-8.533c0-5.12,3.413-8.533,8.533-8.533h17.067
		c5.12,0,8.533,3.413,8.533,8.533C323.267,179.053,319.853,182.467,314.733,182.467z"/>
	<path d="M417.133,225.133h-17.067c-5.12,0-8.533-3.413-8.533-8.533c0-5.12,3.413-8.533,8.533-8.533h17.067
		c5.12,0,8.533,3.413,8.533,8.533C425.667,221.72,422.253,225.133,417.133,225.133z"/>
	<path d="M365.933,225.133h-68.267c-5.12,0-8.533-3.413-8.533-8.533c0-5.12,3.413-8.533,8.533-8.533h68.267
		c5.12,0,8.533,3.413,8.533,8.533C374.467,221.72,371.053,225.133,365.933,225.133z"/>
	<path d="M417.133,310.467h-68.267c-5.12,0-8.533-3.413-8.533-8.533s3.413-8.533,8.533-8.533h68.267c5.12,0,8.533,3.413,8.533,8.533
		S422.253,310.467,417.133,310.467z"/>
	<path d="M314.733,310.467h-17.067c-5.12,0-8.533-3.413-8.533-8.533s3.413-8.533,8.533-8.533h17.067c5.12,0,8.533,3.413,8.533,8.533
		S319.853,310.467,314.733,310.467z"/>
	<path d="M365.933,353.133h-68.267c-5.12,0-8.533-3.413-8.533-8.533c0-5.12,3.413-8.533,8.533-8.533h68.267
		c5.12,0,8.533,3.413,8.533,8.533C374.467,349.72,371.053,353.133,365.933,353.133z"/>
	<path d="M212.333,301.933h-17.067c-5.12,0-8.533-3.413-8.533-8.533c0-5.12,3.413-8.533,8.533-8.533h17.067
		c5.12,0,8.533,3.413,8.533,8.533C220.867,298.52,217.453,301.933,212.333,301.933z"/>
	<path d="M127,259.267H92.867c-5.12,0-8.533-3.413-8.533-8.533c0-5.12,3.413-8.533,8.533-8.533H127c5.12,0,8.533,3.413,8.533,8.533
		C135.533,255.853,132.12,259.267,127,259.267z"/>
	<path d="M212.333,259.267h-51.2c-5.12,0-8.533-3.413-8.533-8.533c0-5.12,3.413-8.533,8.533-8.533h51.2
		c5.12,0,8.533,3.413,8.533,8.533C220.867,255.853,217.453,259.267,212.333,259.267z"/>
	<path d="M212.333,336.067c0,5.12-3.413,8.533-8.533,8.533c-5.12,0-8.533-3.413-8.533-8.533s3.413-8.533,8.533-8.533
		C208.92,327.533,212.333,331.8,212.333,336.067"/>
	<path d="M417.133,344.6c0,5.12-3.413,8.533-8.533,8.533c-5.12,0-8.533-3.413-8.533-8.533c0-5.12,3.413-8.533,8.533-8.533
		C413.72,336.067,417.133,340.333,417.133,344.6"/>
</g>
<g>
</g>
<g>
</g>
<g>
</g>
<g>
</g>
<g>
</g>
<g>
</g>
<g>
</g>
<g>
</g>
<g>
</g>
<g>
</g>
<g>
</g>
<g>
</g>
<g>
</g>
<g>
</g>
<g>
</g>
</svg>
