<?xml version="1.0" encoding="iso-8859-1"?>
<!-- Generator: Adobe Illustrator 19.0.0, SVG Export Plug-In . SVG Version: 6.00 Build 0)  -->
<svg version="1.1" id="Layer_1" xmlns="http://www.w3.org/2000/svg" xmlns:xlink="http://www.w3.org/1999/xlink" x="0px" y="0px"
	 viewBox="0 0 512 512" style="enable-background:new 0 0 512 512;" xml:space="preserve">
<path style="fill:#FCC309;" d="M332.8,452.267h-25.6V435.2c0-9.387-0.853-16.213-8.533-16.213H281.6v-51.2h-51.2v51.2h-7.68
	c-7.68,0-13.653,7.68-13.653,16.213v17.067H179.2c-23.04,0-42.667,23.04-42.667,51.2h238.933
	C375.467,475.307,356.693,452.267,332.8,452.267"/>
<g>
	<path style="fill:#FFFFFF;" d="M179.2,452.267h-17.067c-28.16,0-51.2,23.04-51.2,51.2h25.6
		C136.533,475.307,155.307,452.267,179.2,452.267"/>
	<path style="fill:#FFFFFF;" d="M209.067,435.2c0-9.387,5.973-16.213,13.653-16.213h7.68v-51.2h-12.8c-1.707,0-2.56,0-4.267,0v51.2
		h-9.387c-8.533-0.853-16.213,6.827-16.213,16.213v17.067H179.2h30.72V435.2H209.067z"/>
</g>
<g>
	<path style="fill:#FD9808;" d="M349.867,452.267H332.8c23.04,0,42.667,23.04,42.667,51.2h25.6
		C401.067,475.307,378.027,452.267,349.867,452.267"/>
	<path style="fill:#FD9808;" d="M324.267,435.2c0-9.387-7.68-16.213-16.213-16.213h-9.387v-51.2c-1.707,0-2.56,0-4.267,0h-12.8v51.2
		h17.067c7.68,0,8.533,7.68,8.533,16.213v17.067h25.6h-8.533V435.2z"/>
	<path style="fill:#FD9808;" d="M410.453,0h-25.6c8.533,0,16.213,6.827,16.213,16.213v210.773
		c0,72.533-58.88,131.413-132.267,131.413h25.6c73.387,0,132.267-58.88,132.267-132.267V16.213C426.667,6.827,419.84,0,410.453,0"/>
</g>
<path style="fill:#FFDD09;" d="M277.333,366.933h-42.667c-73.387,0-132.267-58.88-132.267-132.267V24.747
	c0-8.533,6.827-16.213,16.213-16.213H394.24c8.533,0,16.213,6.827,16.213,16.213V235.52
	C409.6,308.053,350.72,366.933,277.333,366.933"/>
<g>
	<path style="fill:#FCC309;" d="M410.453,8.533H101.547c-8.533,0-16.213,6.827-16.213,16.213v34.987h341.333V24.747
		C426.667,15.36,419.84,8.533,410.453,8.533"/>
	<path style="fill:#FCC309;" d="M461.653,76.8h-34.987v34.133h34.987c4.267,0,6.827,4.267,6.827,8.533v76.8
		c0,20.48-11.093,40.107-29.013,51.2l-15.36,9.387c-3.413,18.773-10.24,36.693-21.333,52.053l5.973-3.413l47.787-29.013
		c28.16-17.067,45.227-47.787,45.227-80.213v-76.8C503.467,96.427,484.693,76.8,461.653,76.8"/>
	<path style="fill:#FCC309;" d="M50.347,76.8h34.987v34.133H50.347c-4.267,0-7.68,4.267-7.68,8.533v76.8
		c0,20.48,11.093,40.107,29.013,51.2l15.36,9.387c3.413,18.773,10.24,36.693,21.333,52.053l-5.973-3.413L54.613,276.48
		c-29.013-16.213-46.08-46.933-46.08-80.213v-76.8C8.533,96.427,27.307,76.8,50.347,76.8"/>
</g>
<path style="fill:#FFDD09;" d="M110.933,226.133V16.213C110.933,7.68,117.76,0,127.147,0h-25.6c-8.533,0-16.213,6.827-16.213,16.213
	v210.773c0,72.533,58.88,131.413,132.267,131.413h25.6C169.813,358.4,110.933,299.52,110.933,226.133"/>
<path style="fill:#54C9FD;" d="M256,102.4l22.187,42.667h46.08l-34.133,42.667l8.533,51.2L256,214.187l-42.667,24.747l8.533-51.2
	l-34.133-42.667h46.08L256,102.4z"/>
<g>
	<path style="fill:#020101;" d="M294.4,375.467h-76.8c-77.653,0-140.8-63.147-140.8-140.8V24.747C76.8,11.093,87.893,0,101.547,0
		h309.76c12.8,0,23.893,11.093,23.893,24.747V235.52C435.2,312.32,372.053,375.467,294.4,375.467z M101.547,17.067
		c-4.267,0-7.68,3.413-7.68,7.68V235.52c0,68.267,55.467,123.733,123.733,123.733h76.8c68.267,0,123.733-55.467,123.733-123.733
		V24.747c0-4.267-3.413-7.68-7.68-7.68H101.547z"/>
	<path style="fill:#020101;" d="M294.4,341.333h-76.8c-59.733,0-106.667-45.227-106.667-102.4c0-5.12,3.413-8.533,8.533-8.533
		s8.533,3.413,8.533,8.533c0,47.787,39.253,85.333,89.6,85.333h76.8c50.347,0,89.6-37.547,89.6-85.333
		c0-5.12,3.413-8.533,8.533-8.533s8.533,3.413,8.533,8.533C401.067,296.107,354.133,341.333,294.4,341.333z"/>
	<path style="fill:#020101;" d="M324.267,460.8H187.733c-5.12,0-8.533-3.413-8.533-8.533v-17.92
		c0-13.653,11.093-24.747,24.747-24.747H307.2c13.653,0,24.747,11.093,24.747,24.747v17.92
		C332.8,457.387,329.387,460.8,324.267,460.8z M196.267,443.733h119.467v-9.387c0-4.267-3.413-7.68-7.68-7.68H203.947
		c-4.267,0-7.68,3.413-7.68,7.68V443.733z"/>
	<path style="fill:#020101;" d="M401.067,512H110.933c-5.12,0-8.533-3.413-8.533-8.533c0-33.28,26.453-59.733,59.733-59.733h187.733
		c33.28,0,59.733,26.453,59.733,59.733C409.6,508.587,406.187,512,401.067,512z M120.32,494.933h271.36
		c-4.267-19.627-21.333-34.133-41.813-34.133H162.133C141.653,460.8,124.587,475.307,120.32,494.933z"/>
	<path style="fill:#020101;" d="M403.627,318.293c-2.56,0-4.267-0.853-5.973-2.56c-2.56-2.56-3.413-7.68-0.853-10.24
		c10.24-14.507,17.067-30.72,19.627-48.64c0-2.56,1.707-4.267,4.267-5.973l15.36-9.387c15.36-9.387,24.747-25.6,24.747-43.52v-76.8
		h-34.133c-5.12,0-8.533-3.413-8.533-8.533V76.8c0-5.12,3.413-8.533,8.533-8.533h34.987c27.307,0,50.347,23.04,50.347,51.2v76.8
		c0,35.84-18.773,69.12-49.493,87.893l-54.613,32.427C406.187,317.44,405.333,318.293,403.627,318.293z M432.64,262.827
		c-1.707,8.533-4.267,16.213-6.827,23.893l28.16-17.067c25.6-15.36,41.813-43.52,41.813-73.387v-76.8
		c0-18.773-15.36-34.133-33.28-34.133H435.2V102.4h26.453c9.387,0,15.36,8.533,15.36,17.067v76.8c0,23.893-12.8,46.08-33.28,58.027
		L432.64,262.827z"/>
	<path style="fill:#020101;" d="M298.667,426.667h-85.333c-5.12,0-8.533-3.413-8.533-8.533v-51.2c0-2.56,0.853-4.267,2.56-5.973
		c1.707-1.707,4.267-2.56,5.973-2.56h1.707c0.853,0,0.853,0,1.707,0h76.8c0.853,0,0.853,0,1.707,0h1.707
		c2.56,0,4.267,0.853,5.973,2.56c1.707,1.707,2.56,3.413,2.56,5.973v51.2C307.2,423.253,303.787,426.667,298.667,426.667z
		 M221.867,409.6h68.267v-34.133h-68.267V409.6z"/>
	<path style="fill:#020101;" d="M426.667,68.267H85.333c-5.12,0-8.533-3.413-8.533-8.533V24.747C76.8,11.093,87.893,0,101.547,0
		h309.76c12.8,0,23.893,11.093,23.893,24.747v34.987C435.2,64.853,431.787,68.267,426.667,68.267z M93.867,51.2h324.267V24.747
		c0-4.267-3.413-7.68-7.68-7.68H101.547c-4.267,0-7.68,3.413-7.68,7.68V51.2z"/>
	<path style="fill:#020101;" d="M298.667,247.467c-1.707,0-2.56,0-4.267-0.853l-38.4-23.04l-38.4,22.187
		c-2.56,1.707-6.827,1.707-9.387,0c-2.56-1.707-4.267-5.12-3.413-8.533l7.68-47.787l-31.573-40.107
		c-1.707-2.56-2.56-5.973-0.853-9.387c1.707-2.56,4.267-5.12,7.68-5.12h40.96l19.627-38.4c2.56-5.973,11.947-5.973,15.36,0
		l19.627,38.4h40.96c3.413,0,5.973,1.707,7.68,5.12c1.707,2.56,0.853,6.827-0.853,9.387L299.52,189.44l7.68,47.787
		c0.853,3.413-0.853,6.827-3.413,8.533C302.08,246.613,300.373,247.467,298.667,247.467z M256,205.653c1.707,0,2.56,0,4.267,0.853
		l27.307,15.36L281.6,189.44c0-2.56,0-5.12,1.707-6.827l23.04-29.013h-28.16c-3.413,0-5.973-1.707-7.68-4.267L256,121.173
		l-14.507,28.16c-1.707,2.56-4.267,4.267-7.68,4.267h-28.16l23.04,29.013c1.707,1.707,2.56,4.267,1.707,6.827l-5.12,33.28
		l27.307-15.36C253.44,205.653,254.293,205.653,256,205.653z"/>
	<path style="fill:#020101;" d="M108.373,318.293c-1.707,0-2.56,0-4.267-0.853l-5.973-3.413l-48.64-29.013
		C18.773,266.24,0,232.107,0,196.267v-76.8c0-27.307,23.04-51.2,50.347-51.2h34.987c5.12,0,8.533,3.413,8.533,8.533v34.133
		c0,5.12-3.413,8.533-8.533,8.533H51.2v76.8c0,17.92,9.387,34.987,24.747,43.52l15.36,9.387c1.707,0.853,3.413,3.413,4.267,5.973
		c3.413,17.92,9.387,34.133,19.627,48.64c2.56,3.413,1.707,7.68-0.853,10.24C113.493,317.44,110.933,318.293,108.373,318.293z
		 M50.347,85.333c-17.92,0-33.28,15.36-33.28,34.133v76.8c0,29.867,16.213,58.027,41.813,73.387l28.16,17.067
		c-3.413-7.68-5.12-16.213-6.827-23.893l-12.8-7.68c-20.48-11.947-33.28-34.987-33.28-58.88v-76.8c0-7.68,6.827-17.067,15.36-17.067
		H76.8V85.333H50.347z"/>
</g>
<g>
</g>
<g>
</g>
<g>
</g>
<g>
</g>
<g>
</g>
<g>
</g>
<g>
</g>
<g>
</g>
<g>
</g>
<g>
</g>
<g>
</g>
<g>
</g>
<g>
</g>
<g>
</g>
<g>
</g>
</svg>
