<?xml version="1.0" encoding="iso-8859-1"?>
<!-- Generator: Adobe Illustrator 19.0.0, SVG Export Plug-In . SVG Version: 6.00 Build 0)  -->
<svg version="1.1" id="Layer_1" xmlns="http://www.w3.org/2000/svg" xmlns:xlink="http://www.w3.org/1999/xlink" x="0px" y="0px"
	 viewBox="0 0 508 508" style="enable-background:new 0 0 508 508;" xml:space="preserve">
<path style="fill:#AEB1B4;" d="M8,388.2h496v-62.8c0-4.4-1.6-7.6-4-10l-65.2-65.2c-6.4-6-14.8-10.4-22.8-10.4H104.8
	c-8,0-16.4,4-22.8,10.4c0,0-69.2,65.2-69.2,64.8c-2.8,2-4,6.4-4,10v63.2H8z"/>
<path style="fill:#E8E3E3;" d="M352,336.2h152v-10.8c0-4.4-1.6-8.4-4-10.4c-2-1.6-4.8-2.8-8-2.8H326c0,0,0,1.6,0,2.4
	c-2.4,36-33.6,65.6-69.6,65.6l0,0c-36.4,0-67.2-29.6-69.6-65.6c0-0.8,0-2.4,0-2.4h-162c-3.2,0-10,1.2-12,2.8c-2.8,2-8,6-8,10.4v10.8
	h156c1.2,0,2,0.8,2,2s-0.8,2-2,2H4.8v77.2c0,7.6,12.8,14.8,20.4,14.8h467.6c7.6,0,12-6.8,12-14.8v-77.2h-152c-1.2,0-2-0.8-2-2
	S350.8,336.2,352,336.2z"/>
<polygon style="fill:#54B265;" points="305.6,168.2 305.6,72.2 201.6,72.2 201.6,168.2 166,168.2 254,276.2 342,168.2 "/>
<path d="M256.4,280.2c-1.2,0-2.4-0.4-3.2-1.6l-88-108c-0.8-1.2-1.2-2.8-0.4-4.4c0.8-1.2,2-2.4,3.6-2.4H196v-92c0-2.4,1.6-4,4-4h108
	c2.4,0,4,1.6,4,4v92h32.4c1.6,0,2.8,0.8,3.6,2.4c0.8,1.2,0.4,3.2-0.4,4.4l-88,108C258.8,279.8,257.6,280.2,256.4,280.2z
	 M176.8,172.2l79.6,97.6l79.6-97.6h-28c-2.4,0-4-1.6-4-4v-92H204v92c0,2.4-1.6,4-4,4H176.8z"/>
<path d="M496.4,316.2c-1.2,0-2-0.4-2.8-1.2l-60.4-62c-5.6-5.6-13.6-8.8-21.6-8.8H320c-2.4,0-4-1.6-4-4s1.6-4,4-4h91.6
	c10,0,20,4,27.2,10.8l60.8,62.4c1.6,1.6,1.6,4,0,5.6C498.4,315.8,497.6,316.2,496.4,316.2z"/>
<path d="M12,319c-1.2,0-2-0.4-2.8-1.2c-1.6-1.6-1.6-4,0-5.6l68-64.8c7.2-6.8,17.2-10.8,27.2-10.8H192c2.4,0,4,1.6,4,4s-1.6,4-4,4
	h-87.6c-8,0-15.6,3.2-21.6,8.8l-68,64.8C14,318.6,12.8,319,12,319z"/>
<path d="M487.2,440.2H20.4c-11.6,0-20.4-12-20.4-22.8v-92c0-10.8,12-17.2,24-17.2h164c2.4,0,4,1.6,4,4c0,34.4,29.6,63.6,64,63.6
	s64-29.2,64-63.6c0-2,1.6-4,4-4h168c10.8,0,16,6,16,17.2v92C508,427.8,498.8,440.2,487.2,440.2z M24,316.2c-6.8,0-16,3.2-16,9.2v92
	c0,6.4,6,14.8,12.4,14.8h466.8c6,0,12.8-7.6,12.8-14.8v-92c0-8-2.8-9.2-8-9.2H328c-2.4,37.2-34.4,67.6-72,67.6s-69.6-30.8-72-67.6
	H24z"/>
<path d="M160,344.2H8c-2.4,0-4-1.6-4-4s1.6-4,4-4h152c2.4,0,4,1.6,4,4S162.4,344.2,160,344.2z"/>
<path d="M504,344.2H352c-2.4,0-4-1.6-4-4s1.6-4,4-4h152c2.4,0,4,1.6,4,4S506.4,344.2,504,344.2z"/>
<g>
</g>
<g>
</g>
<g>
</g>
<g>
</g>
<g>
</g>
<g>
</g>
<g>
</g>
<g>
</g>
<g>
</g>
<g>
</g>
<g>
</g>
<g>
</g>
<g>
</g>
<g>
</g>
<g>
</g>
</svg>
