<svg xmlns="http://www.w3.org/2000/svg" xmlns:xlink="http://www.w3.org/1999/xlink" version="1.1" width="256" height="256" viewBox="0 0 256 256" xml:space="preserve">
<desc>Created with Fabric.js 1.7.22</desc>
<defs>
</defs>
<g transform="translate(128 128) scale(0.72 0.72)" style="">
	<g style="stroke: none; stroke-width: 0; stroke-dasharray: none; stroke-linecap: butt; stroke-linejoin: miter; stroke-miterlimit: 10; fill: none; fill-rule: nonzero; opacity: 1;" transform="translate(-175.05 -175.05000000000004) scale(3.89 3.89)" >
	<path d="M 45 3 c 7.785 0 14.118 6.333 14.118 14.118 v 6.139 c 0 7.785 -6.333 14.118 -14.118 14.118 c -7.785 0 -14.118 -6.333 -14.118 -14.118 v -6.139 C 30.882 9.333 37.215 3 45 3 M 45 0 L 45 0 c -9.415 0 -17.118 7.703 -17.118 17.118 v 6.139 c 0 9.415 7.703 17.118 17.118 17.118 h 0 c 9.415 0 17.118 -7.703 17.118 -17.118 v -6.139 C 62.118 7.703 54.415 0 45 0 L 45 0 z" style="stroke: none; stroke-width: 1; stroke-dasharray: none; stroke-linecap: butt; stroke-linejoin: miter; stroke-miterlimit: 10; fill: rgb(255,215,0); fill-rule: nonzero; opacity: 1;" transform=" matrix(1 0 0 1 0 0) " stroke-linecap="round" />
	<path d="M 47.875 53.673 l -0.639 -3.615 l 1.117 -1.935 l 2.075 -3.595 c 0.568 -0.984 -0.142 -2.214 -1.278 -2.214 H 45 h -4.151 c -1.136 0 -1.847 1.23 -1.278 2.214 l 2.075 3.595 l 1.117 1.935 l -0.639 3.615 l -0.637 3.602 L 45 66.938 l 3.497 -9.751 L 47.875 53.673 z" style="stroke: none; stroke-width: 1; stroke-dasharray: none; stroke-linecap: butt; stroke-linejoin: miter; stroke-miterlimit: 10; fill: rgb(255,215,0); fill-rule: nonzero; opacity: 1;" transform=" matrix(1 0 0 1 0 0) " stroke-linecap="round" />
	<path d="M 57.423 46.412 c 10.087 2.963 17.169 12.234 17.169 22.934 V 87 H 15.409 V 69.346 c 0 -10.701 7.082 -19.972 17.169 -22.934 l 4.026 11.781 l 5.558 16.264 L 45 82.764 l 2.839 -8.307 l 5.558 -16.264 L 57.423 46.412 M 55.463 42.869 l -4.905 14.353 L 45 73.487 l -5.558 -16.264 l -4.905 -14.353 c -12.539 2.276 -22.128 13.307 -22.128 26.477 v 17.707 c 0 1.621 1.326 2.946 2.946 2.946 h 59.29 c 1.621 0 2.946 -1.326 2.946 -2.946 V 69.346 C 77.591 56.177 68.002 45.146 55.463 42.869 L 55.463 42.869 z" style="stroke: none; stroke-width: 1; stroke-dasharray: none; stroke-linecap: butt; stroke-linejoin: miter; stroke-miterlimit: 10; fill: rgb(255,215,0); fill-rule: nonzero; opacity: 1;" transform=" matrix(1 0 0 1 0 0) " stroke-linecap="round" />
</g>
</g>
</svg>