<svg xmlns="http://www.w3.org/2000/svg" xmlns:xlink="http://www.w3.org/1999/xlink" version="1.1" width="256" height="256" viewBox="0 0 256 256" xml:space="preserve">
<desc>Created with Fabric.js 1.7.22</desc>
<defs>
</defs>
<g transform="translate(128 128) scale(0.72 0.72)" style="">
	<g style="stroke: none; stroke-width: 0; stroke-dasharray: none; stroke-linecap: butt; stroke-linejoin: miter; stroke-miterlimit: 10; fill: none; fill-rule: nonzero; opacity: 1;" transform="translate(-175.05 -175.05000000000004) scale(3.89 3.89)" >
	<path d="M 52.82 83.999 c -0.383 0 -0.765 -0.06 -1.128 -0.181 c -8.307 -2.759 -13.675 -9.354 -13.675 -16.8 V 53.642 c 0 -1.221 0.869 -2.265 2.066 -2.482 c 0 0 0 0 0.001 0 c 4.322 -0.786 8.09 -2.409 11.198 -4.823 c 0.904 -0.702 2.17 -0.702 3.074 0 c 3.108 2.414 6.876 4.037 11.198 4.823 c 1.198 0.218 2.067 1.263 2.067 2.482 v 13.377 c 0 7.446 -5.368 14.04 -13.675 16.8 C 53.584 83.939 53.202 83.999 52.82 83.999 z M 40.442 53.126 c -0.247 0.045 -0.425 0.262 -0.425 0.516 v 13.377 c 0 6.569 4.831 12.419 12.306 14.901 c 0.319 0.107 0.672 0.107 0.993 0 c 7.476 -2.482 12.306 -8.332 12.306 -14.901 V 53.642 c 0 -0.254 -0.179 -0.471 -0.426 -0.516 c -4.642 -0.844 -8.701 -2.597 -12.066 -5.21 c -0.184 -0.143 -0.438 -0.143 -0.621 0 C 49.144 50.529 45.084 52.282 40.442 53.126 L 40.442 53.126 z" style="stroke: none; stroke-width: 1; stroke-dasharray: none; stroke-linecap: butt; stroke-linejoin: miter; stroke-miterlimit: 10; fill: rgb(255,215,0); fill-rule: nonzero; opacity: 1;" transform=" matrix(1 0 0 1 0 0) " stroke-linecap="round" />
	<path d="M 51.727 71.326 c -0.307 0 -0.598 -0.141 -0.788 -0.385 l -3.616 -4.633 c -0.34 -0.436 -0.263 -1.063 0.173 -1.403 c 0.436 -0.341 1.063 -0.264 1.403 0.173 l 2.718 3.481 l 5.055 -8.475 c 0.281 -0.474 0.895 -0.632 1.371 -0.346 c 0.474 0.282 0.629 0.896 0.346 1.371 l -5.803 9.729 c -0.169 0.283 -0.467 0.465 -0.796 0.485 C 51.769 71.325 51.747 71.326 51.727 71.326 z" style="stroke: none; stroke-width: 1; stroke-dasharray: none; stroke-linecap: butt; stroke-linejoin: miter; stroke-miterlimit: 10; fill: rgb(255,215,0); fill-rule: nonzero; opacity: 1;" transform=" matrix(1 0 0 1 0 0) " stroke-linecap="round" />
	<path d="M 38.099 21.659 c -5.229 0 -9.484 -4.254 -9.484 -9.484 V 9.484 C 28.615 4.254 32.869 0 38.099 0 s 9.484 4.254 9.484 9.484 v 2.691 C 47.583 17.404 43.328 21.659 38.099 21.659 z M 38.099 2 c -4.126 0 -7.484 3.357 -7.484 7.484 v 2.691 c 0 4.126 3.357 7.484 7.484 7.484 c 4.127 0 7.484 -3.357 7.484 -7.484 V 9.484 C 45.583 5.357 42.226 2 38.099 2 z" style="stroke: none; stroke-width: 1; stroke-dasharray: none; stroke-linecap: butt; stroke-linejoin: miter; stroke-miterlimit: 10; fill: rgb(255,215,0); fill-rule: nonzero; opacity: 1;" transform=" matrix(1 0 0 1 0 0) " stroke-linecap="round" />
	<path d="M 40.459 90 h -4.72 c -2.509 0 -4.567 -1.885 -4.788 -4.385 l -1.924 -25.102 c -4.003 -1.661 -6.649 -5.579 -6.649 -9.951 V 35.614 c 0 -5.946 4.837 -10.783 10.783 -10.783 h 9.876 c 5.946 0 10.783 4.837 10.783 10.783 V 46.81 c 0 0.553 -0.447 1 -1 1 s -1 -0.447 -1 -1 V 35.614 c 0 -4.843 -3.939 -8.783 -8.783 -8.783 h -9.876 c -4.843 0 -8.783 3.94 -8.783 8.783 v 14.948 c 0 3.741 2.38 7.076 5.923 8.297 c 0.377 0.13 0.641 0.472 0.671 0.869 l 1.972 25.723 C 33.072 86.899 34.274 88 35.739 88 h 4.72 c 1.465 0 2.667 -1.101 2.795 -2.561 l 0.514 -6.704 c 0.042 -0.551 0.507 -0.963 1.074 -0.921 c 0.55 0.042 0.963 0.522 0.92 1.073 l -0.515 6.716 C 45.026 88.115 42.968 90 40.459 90 z" style="stroke: none; stroke-width: 1; stroke-dasharray: none; stroke-linecap: butt; stroke-linejoin: miter; stroke-miterlimit: 10; fill: rgb(255,215,0); fill-rule: nonzero; opacity: 1;" transform=" matrix(1 0 0 1 0 0) " stroke-linecap="round" />
</g>
</g>
</svg>