<?xml version="1.0" encoding="iso-8859-1"?>
<!-- Generator: Adobe Illustrator 19.0.0, SVG Export Plug-In . SVG Version: 6.00 Build 0)  -->
<svg version="1.1" id="Layer_1" xmlns="http://www.w3.org/2000/svg" xmlns:xlink="http://www.w3.org/1999/xlink" x="0px" y="0px"
	 viewBox="0 0 512 512" style="enable-background:new 0 0 512 512;" xml:space="preserve">
<g transform="translate(1 1)">
	<g>
		<path style="fill:#FFDD09;" d="M178.093,502.467h153.6V434.2h-153.6V502.467z"/>
		<path style="fill:#FFDD09;" d="M156.76,502.467h46.933V434.2l-55.467,44.373C137.987,486.253,143.96,502.467,156.76,502.467"/>
	</g>
	<path style="fill:#FFFFFF;" d="M148.227,478.573l29.867-23.893V434.2l-55.467,44.373c-10.24,7.68-4.267,23.893,8.533,23.893h25.6
		C143.96,502.467,137.987,486.253,148.227,478.573"/>
	<path style="fill:#FFDD09;" d="M353.027,502.467h-46.933V434.2l55.467,44.373C371.8,486.253,365.827,502.467,353.027,502.467"/>
	<path style="fill:#FD9808;" d="M361.56,478.573l-29.867-23.893V434.2l55.467,44.373c10.24,7.68,4.267,23.893-8.533,23.893h-25.6
		C365.827,502.467,371.8,486.253,361.56,478.573"/>
	<path style="fill:#1CD759;" d="M459.693,220.867l-25.6,25.6v25.6l34.133,25.6l25.6-25.6l-8.533-34.133L459.693,220.867z"/>
	<path style="fill:#FFDD09;" d="M297.56,365.933h179.2V331.8h-179.2V365.933z"/>
	<path style="fill:#FD9808;" d="M476.76,365.933h25.6V331.8h-25.6V365.933z"/>
	<path style="fill:#FFDD09;" d="M476.76,331.8h-76.8v-25.6c0-5.12,4.267-8.533,8.533-8.533h59.733c5.12,0,8.533,4.267,8.533,8.533
		V331.8z"/>
	<path style="fill:#FD9808;" d="M493.827,297.667h-25.6c5.12,0,8.533,4.267,8.533,8.533v25.6h25.6v-25.6
		C502.36,301.933,498.947,297.667,493.827,297.667"/>
	<path style="fill:#FFDD09;" d="M271.96,434.2h-59.733V323.267c0-14.507,19.627-25.6,34.133-25.6h-8.533
		c18.773,0,34.133,15.36,34.133,34.133V434.2z"/>
	<path style="fill:#FD9808;" d="M254.893,297.667c-3.413,0-5.973,0-9.387,0.853c15.36,3.413,26.453,17.067,26.453,33.28v102.4h25.6
		v-93.867C297.56,316.44,278.787,297.667,254.893,297.667"/>
	<path style="fill:#FFDD09;" d="M135.427,203.8c0-7.68,0.853-14.507,6.827-25.6c-11.947-0.853-22.187-7.68-28.16-17.92
		c-11.093,19.627-12.8,31.573-12.8,43.52c0,69.973,46.933,128.853,110.933,147.627v-11.093c0-8.533,2.56-16.213,6.827-23.04
		C170.413,302.787,135.427,256.707,135.427,203.8"/>
	<path style="fill:#FCC309;" d="M178.093,144.067c0,18.773-15.36,34.133-34.133,34.133s-34.133-15.36-34.133-34.133
		s15.36-34.133,34.133-34.133S178.093,125.293,178.093,144.067"/>
	<path style="fill:#FFDD09;" d="M133.72,62.147l-31.573,60.587l11.947,5.973c5.973-11.093,17.067-18.773,30.72-18.773
		c18.773,0,34.133,15.36,34.133,34.133c0,5.973-1.707,11.947-4.267,16.213l116.907,61.44l31.573-60.587L133.72,62.147z"/>
	<path style="fill:#FCC309;" d="M109.827,107.373L64.6,84.333l16.213-29.867L126.04,78.36L109.827,107.373z"/>
	<path style="fill:#FFFFFF;" d="M52.653,106.52L7.427,84.333l39.253-76.8l45.227,23.04L52.653,106.52z"/>
	<path style="fill:#FFDD09;" d="M52.653,109.933L24.493,96.28L64.6,19.48l28.16,14.507L52.653,109.933z"/>
	<g>
		<path style="fill:#FCC309;" d="M347.907,242.2l-57.173-20.48l31.573-60.587l48.64,34.987L347.907,242.2z"/>
		<path style="fill:#FCC309;" d="M370.093,254.147l-23.04-11.947l23.893-45.227l23.04,11.947c4.267,2.56,5.973,7.68,3.413,11.947
			l-16.213,29.867C379.48,255,374.36,255.853,370.093,254.147"/>
	</g>
	<path d="M331.693,511h-153.6c-5.12,0-8.533-3.413-8.533-8.533V434.2c0-5.12,3.413-8.533,8.533-8.533h153.6
		c5.12,0,8.533,3.413,8.533,8.533v68.267C340.227,507.587,336.813,511,331.693,511z M186.627,493.933H323.16v-51.2H186.627V493.933z
		"/>
	<path d="M297.56,442.733h-85.333c-5.12,0-8.533-3.413-8.533-8.533v-93.867c0-28.16,23.04-51.2,51.2-51.2s51.2,23.04,51.2,51.2
		V434.2C306.093,439.32,302.68,442.733,297.56,442.733z M220.76,425.667h68.267v-85.333c0-18.773-15.36-34.133-34.133-34.133
		s-34.133,15.36-34.133,34.133V425.667z"/>
	<path d="M109.827,115.907c-1.707,0-2.56,0-4.267-0.853L60.333,91.16c-4.267-1.707-5.973-6.827-3.413-11.093L73.133,50.2
		c1.707-4.267,6.827-5.973,11.093-4.267l45.227,23.893c1.707,0.853,3.413,2.56,4.267,5.12c0.853,2.56,0.853,4.267-0.853,6.827
		l-16.213,29.867C115.8,114.2,113.24,115.907,109.827,115.907z M75.693,80.067L105.56,96.28l7.68-15.36L84.227,65.56L75.693,80.067z
		"/>
	<path d="M347.907,250.733c-0.853,0-1.707,0-2.56-0.853l-57.173-20.48c-2.56-0.853-4.267-2.56-5.12-5.12s-0.853-5.12,0-6.827
		l31.573-60.587c0.853-2.56,3.413-3.413,5.973-4.267s5.12,0,6.827,1.707l48.64,34.987c3.413,2.56,4.267,6.827,2.56,11.093
		l-23.04,46.08C353.88,249.027,350.467,250.733,347.907,250.733z M302.68,217.453l40.96,14.507l17.067-32.427l-34.987-25.6
		L302.68,217.453z"/>
	<path d="M374.36,263.533c-2.56,0-5.12-0.853-7.68-1.707l-23.04-11.947c-1.707-0.853-3.413-2.56-4.267-5.12
		c-0.853-2.56-0.853-4.267,0.853-6.827l23.893-45.227c0.853-1.707,2.56-3.413,5.12-4.267s4.267-0.853,6.827,0.853l23.04,11.947
		c4.267,1.707,6.827,5.973,8.533,10.24c1.707,4.267,0.853,9.387-0.853,12.8l-16.213,29.867c-1.707,4.267-5.973,6.827-10.24,8.533
		C377.773,263.533,376.067,263.533,374.36,263.533z M359,238.787l15.36,7.68l0,0l0,0l16.213-29.867l-15.36-7.68L359,238.787z"/>
	<path d="M52.653,115.053c-0.853,0-2.56,0-3.413-0.853L4.013,92.013c-1.707-0.853-3.413-2.56-4.267-5.12
		c-0.853-1.707-0.853-4.267,0-6.827L39,3.267C39.853,1.56,41.56-0.147,44.12-1c2.56,0,5.12,0,6.827,0.853l45.227,23.04
		c1.707,0.853,3.413,2.56,4.267,5.12c0.853,2.56,0,5.12-0.853,6.827l-39.253,75.947C58.627,113.347,56.067,115.053,52.653,115.053z
		 M19.373,80.92L49.24,95.427L80.813,34.84L50.947,19.48L19.373,80.92z"/>
	<path d="M502.36,374.467h-204.8c-5.12,0-8.533-3.413-8.533-8.533V331.8c0-5.12,3.413-8.533,8.533-8.533h204.8
		c5.12,0,8.533,3.413,8.533,8.533v34.133C510.893,371.053,507.48,374.467,502.36,374.467z M306.093,357.4h187.733v-17.067H306.093
		V357.4z"/>
	<path d="M502.36,340.333h-102.4c-5.12,0-8.533-3.413-8.533-8.533v-25.6c0-9.387,7.68-17.067,17.067-17.067h85.333
		c9.387,0,17.067,7.68,17.067,17.067v25.6C510.893,336.92,507.48,340.333,502.36,340.333z M408.493,323.267h85.333V306.2h-85.333
		V323.267z"/>
	<path d="M143.96,186.733c-23.893,0-42.667-18.773-42.667-42.667S120.067,101.4,143.96,101.4s42.667,18.773,42.667,42.667
		S167.853,186.733,143.96,186.733z M143.96,118.467c-14.507,0-25.6,11.093-25.6,25.6s11.093,25.6,25.6,25.6s25.6-11.093,25.6-25.6
		C169.56,129.56,158.467,118.467,143.96,118.467z"/>
	<path d="M212.227,359.96c-0.853,0-1.707,0-2.56,0C140.547,339.48,92.76,275.48,92.76,203.8c0-14.507,2.56-28.16,13.653-47.787
		c1.707-2.56,4.267-4.267,7.68-4.267s5.973,1.707,7.68,4.267c4.267,7.68,11.947,12.8,21.333,13.653c2.56,0,5.12,1.707,6.827,4.267
		c1.707,2.56,1.707,5.973,0,8.533c-5.973,9.387-5.973,15.36-5.973,21.333c0,48.64,30.72,91.307,77.653,105.813
		c2.56,0.853,4.267,2.56,5.12,5.12c0.853,2.56,0.853,5.12-0.853,7.68c-3.413,5.12-5.12,11.947-5.12,17.92v11.093
		c0,2.56-0.853,5.12-3.413,6.827C215.64,359.107,213.933,359.96,212.227,359.96z M115.8,175.64
		c-5.12,11.947-5.973,20.48-5.973,28.16c0,60.587,38.4,114.347,93.867,135.68c0-5.973,0.853-11.093,3.413-17.067
		c-48.64-19.627-80.213-65.707-80.213-118.613c0-5.12,0-11.947,3.413-19.627C124.333,182.467,120.067,179.907,115.8,175.64z"/>
	<path d="M290.733,230.253c-1.707,0-2.56,0-4.267-0.853L169.56,167.96c-1.707-0.853-3.413-2.56-4.267-5.12
		c-0.853-2.56,0-4.267,0.853-6.827c2.56-4.267,3.413-8.533,3.413-11.947c0-14.507-11.093-25.6-25.6-25.6
		c-9.387,0-18.773,5.12-23.04,14.507c-0.853,1.707-2.56,3.413-5.12,4.267c-2.56,0.853-4.267,0.853-6.827-0.853l-11.947-5.973
		c-1.707-0.853-3.413-2.56-4.267-5.12c-0.853-2.56-0.853-4.267,0.853-6.827l32.427-59.733c0.853-1.707,2.56-3.413,5.12-4.267
		s4.267-0.853,6.827,0.853l188.587,98.987c4.267,2.56,5.973,7.68,3.413,11.947l-31.573,60.587
		C296.707,228.547,294.147,230.253,290.733,230.253z M184.92,156.867l102.4,53.76l23.893-45.227l-174.08-91.307l-18.773,35.84
		c7.68-5.973,16.213-8.533,25.6-8.533c23.893,0,42.667,18.773,42.667,42.667C186.627,148.333,185.773,152.6,184.92,156.867z"/>
	<path d="M152.493,144.067c0,5.12-3.413,8.533-8.533,8.533c-5.12,0-8.533-3.413-8.533-8.533c0-5.12,3.413-8.533,8.533-8.533
		C149.08,135.533,152.493,138.947,152.493,144.067"/>
	<path d="M263.427,340.333c0,5.12-3.413,8.533-8.533,8.533s-8.533-3.413-8.533-8.533c0-5.12,3.413-8.533,8.533-8.533
		S263.427,336.067,263.427,340.333"/>
	<path d="M378.627,511h-46.933c-5.12,0-8.533-3.413-8.533-8.533V434.2c0-3.413,1.707-5.973,5.12-7.68
		c2.56-1.707,6.827-0.853,9.387,0.853l55.467,44.373c7.68,5.973,10.24,15.36,6.827,24.747C396.547,505.027,388.013,511,378.627,511z
		 M340.227,493.933h38.4c3.413,0,4.267-2.56,4.267-3.413c0-0.853,0.853-3.413-1.707-5.12l-40.96-33.28V493.933z"/>
	<path d="M178.093,511H131.16c-9.387,0-17.92-5.973-20.48-14.507c-3.413-8.533,0-18.773,6.827-24.747l55.467-44.373
		c2.56-1.707,5.973-2.56,9.387-0.853c2.56,1.707,5.12,4.267,5.12,7.68v68.267C186.627,507.587,183.213,511,178.093,511z
		 M169.56,452.12l-41.813,33.28c-2.56,1.707-1.707,4.267-1.707,5.12c0,0.853,1.707,3.413,4.267,3.413h39.253V452.12z"/>
	<path d="M468.227,306.2c-1.707,0-3.413-0.853-5.12-1.707l-34.133-25.6c-2.56-1.707-3.413-4.267-3.413-6.827v-25.6
		c0-2.56,0.853-4.267,2.56-5.973l25.6-25.6c2.56-2.56,7.68-3.413,11.093-0.853l25.6,17.067c1.707,0.853,3.413,2.56,3.413,5.12
		l8.533,34.133c0.853,2.56,0,5.973-2.56,7.68l-25.6,25.6C472.493,305.347,470.787,306.2,468.227,306.2z M442.627,267.8
		l24.747,18.773l17.067-17.067l-6.827-26.453l-17.067-11.093l-17.92,17.92V267.8z"/>
</g>
<g>
</g>
<g>
</g>
<g>
</g>
<g>
</g>
<g>
</g>
<g>
</g>
<g>
</g>
<g>
</g>
<g>
</g>
<g>
</g>
<g>
</g>
<g>
</g>
<g>
</g>
<g>
</g>
<g>
</g>
</svg>
