<svg width="512" height="512" viewBox="0 0 512 512" fill="none" xmlns="http://www.w3.org/2000/svg">
<path d="M503.83 264.171C499.318 264.171 495.66 260.514 495.66 256.001C495.66 213.914 399.359 168.852 256 168.852C112.641 168.852 16.3404 213.914 16.3404 256.001C16.3404 260.514 12.6823 264.171 8.17021 264.171C3.65808 264.171 0 260.513 0 256.001C0 226.923 27.6393 200.278 77.8251 180.975C125.548 162.62 188.825 152.512 256 152.512C323.175 152.512 386.452 162.62 434.175 180.975C484.361 200.278 512 226.923 512 256.001C512 260.513 508.342 264.171 503.83 264.171Z" fill="#2F2E41"/>
<path d="M132.077 478.798C130.692 478.798 129.286 478.445 128 477.702C102.816 463.161 93.5608 425.903 101.938 372.79C109.903 322.284 132.788 262.43 166.376 204.254C199.964 146.079 240.357 96.3331 280.113 64.1816C321.923 30.3711 358.816 19.7575 384 34.2961C387.907 36.5522 389.246 41.5491 386.99 45.4566C384.733 49.3641 379.737 50.6997 375.83 48.4469C339.384 27.4015 252.204 88.274 180.527 212.425C108.848 336.578 99.7222 442.508 136.17 463.551C140.078 465.807 141.416 470.804 139.16 474.712C137.647 477.334 134.901 478.798 132.077 478.798Z" fill="#205AE3"/>
<path d="M359.081 484.056C336.824 484.058 309.701 471.747 280.113 447.819C240.357 415.667 199.965 365.922 166.376 307.746C132.788 249.57 109.904 189.716 101.938 139.211C93.5622 86.0969 102.817 48.8385 128 34.2988C131.908 32.0438 136.905 33.3805 139.161 37.2891C141.417 41.1967 140.078 46.1936 136.17 48.4496C117.529 59.2125 110.934 91.3661 118.079 136.665C125.74 185.238 147.918 243.093 180.527 299.576C242.857 407.535 316.912 467.641 359.133 467.648C365.466 467.649 371.076 466.298 375.83 463.553C379.738 461.298 384.734 462.635 386.991 466.543C389.247 470.451 387.908 475.448 384 477.704C376.639 481.955 368.273 484.056 359.081 484.056Z" fill="#6C63FF"/>
<path d="M256 359.488C188.823 359.488 125.547 349.38 77.8251 331.025C27.6393 311.722 0 285.077 0 255.998C0 251.485 3.65808 247.828 8.17021 247.828C12.6823 247.828 16.3404 251.485 16.3404 255.998C16.3404 298.086 112.641 343.147 256 343.147C399.359 343.147 495.66 298.086 495.66 255.998C495.66 251.485 499.318 247.828 503.83 247.828C508.342 247.828 512 251.485 512 255.998C512 285.077 484.361 311.722 434.175 331.025C386.453 349.38 323.177 359.488 256 359.488Z" fill="#082947"/>
<path d="M53.8116 223.379C65.8444 223.379 75.5989 213.625 75.5989 201.592C75.5989 189.559 65.8444 179.805 53.8116 179.805C41.7789 179.805 32.0244 189.559 32.0244 201.592C32.0244 213.625 41.7789 223.379 53.8116 223.379Z" fill="#6DA8D6"/>
<path d="M310.413 481.22C322.444 481.22 332.197 471.467 332.197 459.436C332.197 447.405 322.444 437.652 310.413 437.652C298.382 437.652 288.629 447.405 288.629 459.436C288.629 471.467 298.382 481.22 310.413 481.22Z" fill="#F2484B"/>
<path d="M107.135 129.134C119.166 129.134 128.919 119.381 128.919 107.35C128.919 95.3194 119.166 85.5664 107.135 85.5664C95.1036 85.5664 85.3506 95.3194 85.3506 107.35C85.3506 119.381 95.1036 129.134 107.135 129.134Z" fill="#F2484B"/>
<path d="M256 305.019C283.073 305.019 305.021 283.072 305.021 255.998C305.021 228.924 283.073 206.977 256 206.977C228.926 206.977 206.979 228.924 206.979 255.998C206.979 283.072 228.926 305.019 256 305.019Z" fill="#F48205"/>
<path d="M152.919 484.055C143.725 484.055 135.363 481.955 128 477.704C124.093 475.448 122.754 470.451 125.01 466.544C127.266 462.635 132.263 461.297 136.171 463.554C172.618 484.6 259.795 423.726 331.473 299.576C364.084 243.094 386.261 185.238 393.921 136.666C401.065 91.3666 394.471 59.213 375.83 48.4501C371.923 46.194 370.584 41.1971 372.84 37.2896C375.096 33.381 380.093 32.0432 384 34.2993C409.184 48.839 418.439 86.0974 410.062 139.211C402.097 189.716 379.213 249.57 345.624 307.747C312.036 365.923 271.644 415.667 231.887 447.82C202.301 471.744 175.175 484.055 152.919 484.055Z" fill="#205AE3"/>
<path d="M379.923 478.798C377.099 478.798 374.353 477.333 372.84 474.712C370.584 470.804 371.923 465.808 375.83 463.551C412.278 442.508 403.152 336.577 331.473 212.425C259.795 88.274 172.618 27.4059 136.171 48.448C132.263 50.7019 127.266 49.3664 125.01 45.4578C122.754 41.5502 124.093 36.5533 128 34.2972C153.185 19.7564 190.079 30.3712 231.887 64.1828C271.645 96.3342 312.037 146.08 345.624 204.255C379.213 262.431 402.097 322.285 410.062 372.791C418.438 425.904 409.183 463.163 384 477.703C382.714 478.445 381.308 478.798 379.923 478.798Z" fill="#6C63FF"/>
<path d="M404.866 129.134C416.897 129.134 426.65 119.381 426.65 107.35C426.65 95.3194 416.897 85.5664 404.866 85.5664C392.835 85.5664 383.082 95.3194 383.082 107.35C383.082 119.381 392.835 129.134 404.866 129.134Z" fill="#6DA8D6"/>
</svg>
