<?xml version="1.0" encoding="iso-8859-1"?>
<!-- Generator: Adobe Illustrator 19.0.0, SVG Export Plug-In . SVG Version: 6.00 Build 0)  -->
<svg version="1.1" id="Layer_1" xmlns="http://www.w3.org/2000/svg" xmlns:xlink="http://www.w3.org/1999/xlink" x="0px" y="0px"
	 viewBox="0 0 356.67 356.67" style="enable-background:new 0 0 356.67 356.67;" xml:space="preserve">
<g>
	<title>schedule-calendar-date-save-appointment</title>
	<path style="fill:#F78628;" d="M328.805,66.876H27.865c-9.234,0-16.719,7.485-16.719,16.719v39.011h334.378V83.594
		C345.524,74.361,338.038,66.876,328.805,66.876z M289.794,111.459h-11.146v-11.146h11.146V111.459z M312.086,111.459H300.94
		v-11.146h11.146V111.459z M334.378,111.459h-11.146v-11.146h11.146V111.459z"/>
	<rect x="44.584" y="228.491" style="fill:#9CE7F7;" width="22.292" height="22.292"/>
	<path style="fill:#9CE7F7;" d="M11.146,328.805c0,9.234,7.485,16.719,16.719,16.719h300.94c9.234,0,16.719-7.485,16.719-16.719
		V133.751H11.146V328.805z M76.405,313.702l-7.858,7.858L55.73,308.798L42.968,321.56l-7.858-7.858l12.762-12.762L35.11,288.178
		l7.858-7.858l12.762,12.762l12.762-12.762l7.858,7.858L63.587,300.94L76.405,313.702z M278.648,161.616
		c0-3.078,2.495-5.573,5.573-5.573h33.438c3.078,0,5.573,2.495,5.573,5.573v33.438c0,3.078-2.495,5.573-5.573,5.573h-33.438
		c-3.078,0-5.573-2.495-5.573-5.573V161.616z M278.648,222.918c0-3.078,2.495-5.573,5.573-5.573h33.438
		c3.078,0,5.573,2.495,5.573,5.573v33.438c0,3.078-2.495,5.573-5.573,5.573h-33.438c-3.078,0-5.573-2.495-5.573-5.573V222.918z
		 M278.648,284.221c0-3.078,2.495-5.573,5.573-5.573h33.438c3.078,0,5.573,2.495,5.573,5.573v33.438
		c0,3.078-2.495,5.573-5.573,5.573h-33.438c-3.078,0-5.573-2.495-5.573-5.573V284.221z M217.345,161.616
		c0-3.078,2.495-5.573,5.573-5.573h33.438c3.078,0,5.573,2.495,5.573,5.573v33.438c0,3.078-2.495,5.573-5.573,5.573h-33.438
		c-3.078,0-5.573-2.495-5.573-5.573L217.345,161.616L217.345,161.616z M260.313,252.399l-7.858,7.858l-12.818-12.762l-12.762,12.762
		l-7.858-7.858l12.762-12.762l-12.762-12.762l7.858-7.858l12.762,12.762l12.762-12.762l7.858,7.858l-12.762,12.762L260.313,252.399z
		 M217.345,284.221c0-3.078,2.495-5.573,5.573-5.573h33.438c3.078,0,5.573,2.495,5.573,5.573v33.438
		c0,3.078-2.495,5.573-5.573,5.573h-33.438c-3.078,0-5.573-2.495-5.573-5.573L217.345,284.221L217.345,284.221z M156.043,161.616
		c0-3.078,2.495-5.573,5.573-5.573h33.438c3.078,0,5.573,2.495,5.573,5.573v33.438c0,3.078-2.495,5.573-5.573,5.573h-33.438
		c-3.078,0-5.573-2.495-5.573-5.573V161.616z M156.043,222.918c0-3.078,2.495-5.573,5.573-5.573h33.438
		c3.078,0,5.573,2.495,5.573,5.573v33.438c0,3.078-2.495,5.573-5.573,5.573h-33.438c-3.078,0-5.573-2.495-5.573-5.573V222.918z
		 M156.043,284.221c0-3.078,2.495-5.573,5.573-5.573h33.438c3.078,0,5.573,2.495,5.573,5.573v33.438
		c0,3.078-2.495,5.573-5.573,5.573h-33.438c-3.078,0-5.573-2.495-5.573-5.573V284.221z M96.356,165.573l7.858-7.858l12.762,12.762
		l12.762-12.762l7.858,7.858l-12.706,12.762l12.762,12.762l-7.858,7.858l-12.762-12.762l-12.762,12.762l-7.858-7.858l12.762-12.762
		L96.356,165.573z M94.74,222.918c0-3.078,2.495-5.573,5.573-5.573h33.438c3.078,0,5.573,2.495,5.573,5.573v33.438
		c0,3.078-2.495,5.573-5.573,5.573h-33.438c-3.078,0-5.573-2.495-5.573-5.573C94.74,256.356,94.74,222.918,94.74,222.918z
		 M94.74,284.221c0-3.078,2.495-5.573,5.573-5.573h33.438c3.078,0,5.573,2.495,5.573,5.573v33.438c0,3.078-2.495,5.573-5.573,5.573
		h-33.438c-3.078,0-5.573-2.495-5.573-5.573C94.74,317.659,94.74,284.221,94.74,284.221z M33.438,161.616
		c0-3.078,2.495-5.573,5.573-5.573h33.438c3.078,0,5.573,2.495,5.573,5.573v33.438c0,3.078-2.495,5.573-5.573,5.573H39.011
		c-3.078,0-5.573-2.495-5.573-5.573C33.438,195.054,33.438,161.616,33.438,161.616z M33.438,222.918
		c0-3.078,2.495-5.573,5.573-5.573h33.438c3.078,0,5.573,2.495,5.573,5.573v33.438c0,3.078-2.495,5.573-5.573,5.573H39.011
		c-3.078,0-5.573-2.495-5.573-5.573C33.438,256.356,33.438,222.918,33.438,222.918z"/>
	<rect x="167.189" y="289.794" style="fill:#9CE7F7;" width="22.292" height="22.292"/>
	<rect x="105.886" y="228.491" style="fill:#9CE7F7;" width="22.292" height="22.292"/>
	<rect x="105.886" y="289.794" style="fill:#9CE7F7;" width="22.292" height="22.292"/>
	<rect x="167.189" y="228.491" style="fill:#9CE7F7;" width="22.292" height="22.292"/>
	<rect x="44.584" y="167.189" style="fill:#9CE7F7;" width="22.292" height="22.292"/>
	<path style="fill:#9CE7F7;" d="M89.167,22.292c0-6.156-4.99-11.146-11.146-11.146s-11.146,4.99-11.146,11.146V55.73h22.292V22.292z
		"/>
	<rect x="289.794" y="167.189" style="fill:#9CE7F7;" width="22.292" height="22.292"/>
	<path style="fill:#9CE7F7;" d="M289.794,22.292c0-6.156-4.99-11.146-11.146-11.146s-11.146,4.99-11.146,11.146V55.73h22.292V22.292
		z"/>
	<rect x="289.794" y="228.491" style="fill:#9CE7F7;" width="22.292" height="22.292"/>
	<rect x="228.491" y="289.794" style="fill:#9CE7F7;" width="22.292" height="22.292"/>
	<rect x="167.189" y="167.189" style="fill:#9CE7F7;" width="22.292" height="22.292"/>
	<rect x="228.491" y="167.189" style="fill:#9CE7F7;" width="22.292" height="22.292"/>
	<rect x="289.794" y="289.794" style="fill:#9CE7F7;" width="22.292" height="22.292"/>
	<path style="fill:#414A52;" d="M328.805,55.73H300.94V22.292C300.94,9.98,290.96,0,278.648,0c-12.312,0-22.292,9.98-22.292,22.292
		V55.73H100.313V22.292C100.313,9.98,90.333,0,78.021,0S55.73,9.98,55.73,22.292V55.73H27.865C12.476,55.73,0,68.205,0,83.594
		v245.21c0,15.389,12.476,27.865,27.865,27.865h300.94c15.389,0,27.865-12.476,27.865-27.865V83.594
		C356.669,68.205,344.194,55.73,328.805,55.73z M267.502,22.292c0-6.156,4.99-11.146,11.146-11.146s11.146,4.99,11.146,11.146V55.73
		h-22.292V22.292z M66.876,22.292c0-6.156,4.99-11.146,11.146-11.146s11.146,4.99,11.146,11.146V55.73H66.876V22.292z
		 M11.146,83.594c0-9.234,7.485-16.719,16.719-16.719h300.94c9.234,0,16.719,7.485,16.719,16.719v39.011H11.146V83.594z
		 M328.805,345.524H27.865c-9.234,0-16.719-7.485-16.719-16.719V133.751h334.378v195.054
		C345.524,338.038,338.038,345.524,328.805,345.524z"/>
	<path style="fill:#414A52;" d="M72.448,156.043H39.011c-3.078,0-5.573,2.495-5.573,5.573v33.438c0,3.078,2.495,5.573,5.573,5.573
		h33.438c3.078,0,5.573-2.495,5.573-5.573v-33.438C78.021,158.538,75.526,156.043,72.448,156.043z M66.876,189.481H44.584v-22.292
		h22.292V189.481z"/>
	<path style="fill:#414A52;" d="M195.054,156.043h-33.438c-3.078,0-5.573,2.495-5.573,5.573v33.438c0,3.078,2.495,5.573,5.573,5.573
		h33.438c3.078,0,5.573-2.495,5.573-5.573v-33.438C200.627,158.538,198.132,156.043,195.054,156.043z M189.481,189.481h-22.292
		v-22.292h22.292L189.481,189.481L189.481,189.481z"/>
	<path style="fill:#414A52;" d="M256.356,156.043h-33.438c-3.078,0-5.573,2.495-5.573,5.573v33.438c0,3.078,2.495,5.573,5.573,5.573
		h33.438c3.078,0,5.573-2.495,5.573-5.573v-33.438C261.929,158.538,259.434,156.043,256.356,156.043z M250.783,189.481h-22.292
		v-22.292h22.292L250.783,189.481L250.783,189.481z"/>
	<path style="fill:#414A52;" d="M317.659,156.043h-33.438c-3.078,0-5.573,2.495-5.573,5.573v33.438c0,3.078,2.495,5.573,5.573,5.573
		h33.438c3.078,0,5.573-2.495,5.573-5.573v-33.438C323.232,158.538,320.737,156.043,317.659,156.043z M312.086,189.481h-22.292
		v-22.292h22.292V189.481z"/>
	<path style="fill:#414A52;" d="M72.448,217.345H39.011c-3.078,0-5.573,2.495-5.573,5.573v33.438c0,3.078,2.495,5.573,5.573,5.573
		h33.438c3.078,0,5.573-2.495,5.573-5.573v-33.438C78.021,219.841,75.526,217.345,72.448,217.345z M66.876,250.783H44.584v-22.292
		h22.292V250.783z"/>
	<path style="fill:#414A52;" d="M133.751,217.345h-33.438c-3.078,0-5.573,2.495-5.573,5.573v33.438c0,3.078,2.495,5.573,5.573,5.573
		h33.438c3.078,0,5.573-2.495,5.573-5.573v-33.438C139.324,219.841,136.829,217.345,133.751,217.345z M128.178,250.783h-22.292
		v-22.292h22.292V250.783z"/>
	<path style="fill:#414A52;" d="M195.054,217.345h-33.438c-3.078,0-5.573,2.495-5.573,5.573v33.438c0,3.078,2.495,5.573,5.573,5.573
		h33.438c3.078,0,5.573-2.495,5.573-5.573v-33.438C200.627,219.841,198.132,217.345,195.054,217.345z M189.481,250.783h-22.292
		v-22.292h22.292L189.481,250.783L189.481,250.783z"/>
	<path style="fill:#414A52;" d="M317.659,217.345h-33.438c-3.078,0-5.573,2.495-5.573,5.573v33.438c0,3.078,2.495,5.573,5.573,5.573
		h33.438c3.078,0,5.573-2.495,5.573-5.573v-33.438C323.232,219.841,320.737,217.345,317.659,217.345z M312.086,250.783h-22.292
		v-22.292h22.292V250.783z"/>
	<path style="fill:#414A52;" d="M133.751,278.648h-33.438c-3.078,0-5.573,2.495-5.573,5.573v33.438c0,3.078,2.495,5.573,5.573,5.573
		h33.438c3.078,0,5.573-2.495,5.573-5.573v-33.438C139.324,281.143,136.829,278.648,133.751,278.648z M128.178,312.086h-22.292
		v-22.292h22.292V312.086z"/>
	<path style="fill:#414A52;" d="M195.054,278.648h-33.438c-3.078,0-5.573,2.495-5.573,5.573v33.438c0,3.078,2.495,5.573,5.573,5.573
		h33.438c3.078,0,5.573-2.495,5.573-5.573v-33.438C200.627,281.143,198.132,278.648,195.054,278.648z M189.481,312.086h-22.292
		v-22.292h22.292L189.481,312.086L189.481,312.086z"/>
	<path style="fill:#414A52;" d="M256.356,278.648h-33.438c-3.078,0-5.573,2.495-5.573,5.573v33.438c0,3.078,2.495,5.573,5.573,5.573
		h33.438c3.078,0,5.573-2.495,5.573-5.573v-33.438C261.929,281.143,259.434,278.648,256.356,278.648z M250.783,312.086h-22.292
		v-22.292h22.292L250.783,312.086L250.783,312.086z"/>
	<path style="fill:#414A52;" d="M317.659,278.648h-33.438c-3.078,0-5.573,2.495-5.573,5.573v33.438c0,3.078,2.495,5.573,5.573,5.573
		h33.438c3.078,0,5.573-2.495,5.573-5.573v-33.438C323.232,281.143,320.737,278.648,317.659,278.648z M312.086,312.086h-22.292
		v-22.292h22.292V312.086z"/>
	<polygon style="fill:#414A52;" points="104.27,199.01 117.032,186.193 129.794,199.01 137.708,191.097 124.89,178.335 
		137.708,165.573 129.794,157.659 117.032,170.477 104.27,157.659 96.356,165.573 109.174,178.335 96.356,191.097 	"/>
	<polygon style="fill:#414A52;" points="68.492,280.264 55.73,293.082 42.968,280.264 35.054,288.178 47.872,300.94 35.054,313.702 
		42.968,321.616 55.73,308.798 68.492,321.616 76.405,313.702 63.587,300.94 76.405,288.178 	"/>
	<polygon style="fill:#414A52;" points="226.875,260.313 239.637,247.495 252.399,260.313 260.313,252.399 247.495,239.637 
		260.313,226.875 252.399,218.962 239.637,231.779 226.875,218.962 218.962,226.875 231.779,239.637 218.962,252.399 	"/>
	<rect x="300.94" y="100.313" style="fill:#414A52;" width="11.146" height="11.146"/>
	<rect x="323.232" y="100.313" style="fill:#414A52;" width="11.146" height="11.146"/>
	<rect x="278.648" y="100.313" style="fill:#414A52;" width="11.146" height="11.146"/>
</g>
<g>
</g>
<g>
</g>
<g>
</g>
<g>
</g>
<g>
</g>
<g>
</g>
<g>
</g>
<g>
</g>
<g>
</g>
<g>
</g>
<g>
</g>
<g>
</g>
<g>
</g>
<g>
</g>
<g>
</g>
</svg>
