<svg width="246" height="414" viewBox="0 0 246 414" fill="none" xmlns="http://www.w3.org/2000/svg">
<path d="M123.005 413.999C91.4443 413.999 62.0091 412.739 40.1238 410.452C13.1248 407.632 0 403.534 0 397.923L0.0147677 397.746L47.4028 174.91L23.6777 132.909C22.5392 130.932 22.1981 128.815 22.6842 126.739C23.1702 124.663 24.4686 122.692 26.4668 120.996C28.4186 119.273 31.0295 117.876 34.0672 116.927C37.1048 115.979 40.4751 115.508 43.8781 115.558L200.983 116.569C204.313 116.59 207.587 117.097 210.54 118.049C213.492 119 216.039 120.369 217.972 122.044C219.905 123.718 221.17 125.651 221.664 127.685C222.157 129.719 221.865 131.796 220.812 133.747L198.603 174.894L246 397.75V397.836C246.005 403.885 231.146 408.18 200.574 410.966C170.54 413.703 136.322 413.999 123.005 413.999Z" fill="white"/>
<path d="M123.005 413.999C91.4443 413.999 62.0091 412.739 40.1238 410.452C13.1248 407.632 0 403.534 0 397.923L0.0147677 397.746L47.4028 174.91L23.6777 132.909C22.5392 130.932 22.1981 128.815 22.6842 126.739C23.1702 124.663 24.4686 122.692 26.4668 120.996C28.4186 119.273 31.0295 117.876 34.0672 116.927C37.1048 115.979 40.4751 115.508 43.8781 115.558L200.983 116.569C204.313 116.59 207.587 117.097 210.54 118.049C213.492 119 216.039 120.369 217.972 122.044C219.905 123.718 221.17 125.651 221.664 127.685C222.157 129.719 221.865 131.796 220.812 133.747L198.603 174.894L246 397.75V397.836C246.005 403.885 231.146 408.18 200.574 410.966C170.54 413.703 136.322 413.999 123.005 413.999ZM43.444 118.221C40.7999 118.219 38.1941 118.612 35.8486 119.366C33.5031 120.12 31.4872 121.213 29.9724 122.551C28.3823 123.9 27.3491 125.469 26.9624 127.121C26.5757 128.773 26.8472 130.458 27.7533 132.03L51.8157 174.628L51.7492 174.942L4.30753 398.01C4.31595 400.195 9.06179 404.505 40.8445 407.823C62.4991 410.086 91.6772 411.333 123.005 411.333C150.541 411.333 179.304 410.21 199.944 408.33C226.31 405.927 241.5 402.135 241.682 397.917L194.195 174.634L216.718 132.905C217.556 131.352 217.788 129.699 217.395 128.081C217.002 126.462 215.996 124.924 214.457 123.591C212.919 122.259 210.893 121.169 208.543 120.412C206.194 119.655 203.588 119.251 200.938 119.234L43.8097 118.224C43.6874 118.222 43.5652 118.221 43.444 118.221Z" fill="#6C63FF"/>
<path opacity="0.5" d="M212.405 370.326H33.5947L61.9403 251.965L62.7124 248.702L74.5213 199.428C75.2417 196.423 80.8454 198.757 84.8075 196.955C109.407 185.769 134.301 185.444 159.411 196.226C163.293 197.893 168.654 195.942 169.378 198.827L181.784 248.251L182.983 253.031L212.405 370.326Z" fill="#6C63FF"/>
<path d="M189.946 386.703H54.9698C51.4312 386.703 47.9342 386.233 44.7169 385.325C41.4996 384.417 38.6376 383.092 36.3258 381.441C34.014 379.789 32.3067 377.85 31.3201 375.756C30.3336 373.661 30.091 371.46 30.6089 369.302L70.0447 204.92C70.2482 204.079 70.8084 203.287 71.6684 202.623C72.5284 201.959 73.6579 201.446 74.9423 201.138C76.2268 200.829 77.6207 200.735 78.9831 200.865C80.3454 200.995 81.6278 201.345 82.7005 201.879C106.735 213.747 132.93 213.48 160.555 201.088C161.626 200.606 162.882 200.302 164.2 200.208C165.518 200.113 166.854 200.23 168.076 200.548C169.324 200.864 170.419 201.374 171.252 202.028C172.085 202.682 172.63 203.458 172.832 204.28L214.283 369.199C214.826 371.363 214.604 373.575 213.631 375.681C212.658 377.787 210.957 379.738 208.645 381.401C206.333 383.064 203.465 384.399 200.237 385.314C197.01 386.229 193.499 386.703 189.946 386.703Z" fill="#205AE3"/>
<path d="M136.546 367.594H59.6035V370.323H136.546V367.594Z" fill="white"/>
<path d="M136.546 351.219H59.6035V353.948H136.546V351.219Z" fill="white"/>
<path d="M136.546 335.75H59.6035V338.48H136.546V335.75Z" fill="white"/>
<path d="M136.546 319.371H59.6035V322.101H136.546V319.371Z" fill="white"/>
<path d="M136.546 303.902H59.6035V306.632H136.546V303.902Z" fill="white"/>
<path d="M186.397 261.748C180.476 265.356 173.352 268.135 165.515 269.895C157.678 271.655 149.314 272.353 140.995 271.943C131.507 271.416 122.856 269.243 114.527 266.503C105.919 263.671 97.5898 260.286 88.0587 258.705C79.7081 257.322 69.8121 257.137 62.6421 260.562C62.0559 260.841 61.3402 260.998 60.5989 261.009C59.8577 261.021 59.1295 260.888 58.5205 260.628L59.3363 257.203C67.3218 253.779 77.0248 253.252 86.5345 254.424C105.683 256.795 120.216 266.516 139.836 267.912C148.3 268.497 156.867 267.782 164.77 265.833C172.672 263.883 179.661 260.759 185.109 256.742L185.131 256.729L186.397 261.748Z" fill="white"/>
<path d="M148.467 10.9187C152.058 10.9187 154.969 8.47445 154.969 5.45934C154.969 2.44423 152.058 0 148.467 0C144.876 0 141.965 2.44423 141.965 5.45934C141.965 8.47445 144.876 10.9187 148.467 10.9187Z" fill="#205AE3"/>
<path d="M123.541 70.0616C128.928 70.0616 133.295 66.3953 133.295 61.8726C133.295 57.3499 128.928 53.6836 123.541 53.6836C118.155 53.6836 113.788 57.3499 113.788 61.8726C113.788 66.3953 118.155 70.0616 123.541 70.0616Z" fill="#205AE3"/>
<path d="M82.361 109.187C91.3386 109.187 98.6165 103.077 98.6165 95.539C98.6165 88.0012 91.3386 81.8906 82.361 81.8906C73.3833 81.8906 66.1055 88.0012 66.1055 95.539C66.1055 103.077 73.3833 109.187 82.361 109.187Z" fill="#205AE3"/>
</svg>
