<svg width="296" height="279" viewBox="0 0 296 279" fill="none" xmlns="http://www.w3.org/2000/svg">
<path d="M113.03 163.511V266.071H184.88V163.511C184.881 162.773 184.646 162.055 184.209 161.461C183.771 160.867 183.155 160.429 182.45 160.211C182.118 160.101 181.77 160.047 181.42 160.051H116.5C116.045 160.05 115.594 160.139 115.174 160.312C114.753 160.486 114.37 160.74 114.048 161.062C113.726 161.383 113.47 161.765 113.295 162.185C113.121 162.605 113.031 163.056 113.03 163.511ZM141.07 198.751C141.089 196.729 141.906 194.797 143.342 193.374C144.778 191.951 146.719 191.153 148.74 191.153C150.762 191.153 152.702 191.951 154.138 193.374C155.575 194.797 156.391 196.729 156.41 198.751V210.651C156.4 212.678 155.587 214.619 154.15 216.049C152.713 217.479 150.768 218.282 148.74 218.282C146.713 218.282 144.768 217.479 143.331 216.049C141.893 214.619 141.081 212.678 141.07 210.651V198.751Z" fill="#2F2E41"/>
<path d="M112.81 262.789V272.679C112.811 273.191 113.015 273.682 113.376 274.046C113.737 274.409 114.227 274.615 114.74 274.619H183.17C183.682 274.617 184.173 274.411 184.535 274.047C184.897 273.684 185.1 273.192 185.1 272.679V262.789H112.81Z" fill="#3F3D56"/>
<path d="M0 8.98999V196.25C0.00189094 198.636 0.950705 200.924 2.63812 202.612C4.32554 204.299 6.61363 205.248 9 205.25H286.5C288.886 205.248 291.174 204.299 292.862 202.612C294.549 200.924 295.498 198.636 295.5 196.25V8.98999C295.494 6.60571 294.544 4.32084 292.857 2.63583C291.17 0.950824 288.884 0.00302801 286.5 0H9C6.61572 0.00303855 4.32983 0.950857 2.64294 2.63586C0.956063 4.32087 0.00568923 6.60571 0 8.98999Z" fill="#3F3D56"/>
<path d="M6.50977 11.32V193.94C6.51197 195.215 7.01945 196.437 7.92102 197.339C8.82259 198.24 10.0447 198.748 11.3198 198.75H284.19C285.465 198.748 286.687 198.24 287.589 197.339C288.49 196.437 288.998 195.215 289 193.94V11.32C289 10.0434 288.493 8.81902 287.591 7.91541C286.69 7.01179 285.466 6.50277 284.19 6.5H11.3198C10.0432 6.50278 8.81986 7.01183 7.91812 7.91544C7.01639 8.81905 6.5099 10.0434 6.50977 11.32Z" fill="#205AE3"/>
<path d="M62.1501 276.951C62.4278 277.299 62.7809 277.58 63.1827 277.772C63.5845 277.965 64.0247 278.063 64.4701 278.061H226.81C227.254 278.061 227.692 277.961 228.093 277.77C228.494 277.579 228.847 277.3 229.126 276.956C229.406 276.611 229.605 276.208 229.71 275.777C229.814 275.345 229.821 274.896 229.73 274.461L227.21 262.491C227.106 262.003 226.881 261.549 226.556 261.17C226.231 260.791 225.817 260.499 225.35 260.321C225.013 260.189 224.653 260.121 224.29 260.121H66.9802C66.6174 260.121 66.2579 260.189 65.9202 260.321C65.4538 260.499 65.0392 260.791 64.7144 261.17C64.3895 261.549 64.1646 262.003 64.0602 262.491L61.5402 274.461C61.4505 274.895 61.4587 275.344 61.5642 275.775C61.6697 276.206 61.8699 276.607 62.1501 276.951Z" fill="#2F2E41"/>
<path d="M218.625 265.277H222.648C222.918 265.277 223.137 265.059 223.137 264.789V262.766C223.137 262.496 222.918 262.277 222.648 262.277H218.625C218.355 262.277 218.137 262.496 218.137 262.766V264.789C218.137 265.059 218.355 265.277 218.625 265.277Z" fill="#3F3D56"/>
<path d="M208.625 265.277H212.648C212.918 265.277 213.137 265.059 213.137 264.789V262.766C213.137 262.496 212.918 262.277 212.648 262.277H208.625C208.355 262.277 208.137 262.496 208.137 262.766V264.789C208.137 265.059 208.355 265.277 208.625 265.277Z" fill="#3F3D56"/>
<path d="M198.625 265.277H202.648C202.918 265.277 203.137 265.059 203.137 264.789V262.766C203.137 262.496 202.918 262.277 202.648 262.277H198.625C198.355 262.277 198.137 262.496 198.137 262.766V264.789C198.137 265.059 198.355 265.277 198.625 265.277Z" fill="#3F3D56"/>
<path d="M188.625 265.277H192.648C192.918 265.277 193.137 265.059 193.137 264.789V262.766C193.137 262.496 192.918 262.277 192.648 262.277H188.625C188.355 262.277 188.137 262.496 188.137 262.766V264.789C188.137 265.059 188.355 265.277 188.625 265.277Z" fill="#3F3D56"/>
<path d="M178.625 265.277H182.648C182.918 265.277 183.137 265.059 183.137 264.789V262.766C183.137 262.496 182.918 262.277 182.648 262.277H178.625C178.355 262.277 178.137 262.496 178.137 262.766V264.789C178.137 265.059 178.355 265.277 178.625 265.277Z" fill="#3F3D56"/>
<path d="M168.625 265.277H172.648C172.918 265.277 173.137 265.059 173.137 264.789V262.766C173.137 262.496 172.918 262.277 172.648 262.277H168.625C168.355 262.277 168.137 262.496 168.137 262.766V264.789C168.137 265.059 168.355 265.277 168.625 265.277Z" fill="#3F3D56"/>
<path d="M158.625 265.277H162.648C162.918 265.277 163.137 265.059 163.137 264.789V262.766C163.137 262.496 162.918 262.277 162.648 262.277H158.625C158.355 262.277 158.137 262.496 158.137 262.766V264.789C158.137 265.059 158.355 265.277 158.625 265.277Z" fill="#3F3D56"/>
<path d="M148.625 265.277H152.648C152.918 265.277 153.137 265.059 153.137 264.789V262.766C153.137 262.496 152.918 262.277 152.648 262.277H148.625C148.355 262.277 148.137 262.496 148.137 262.766V264.789C148.137 265.059 148.355 265.277 148.625 265.277Z" fill="#3F3D56"/>
<path d="M138.625 265.277H142.648C142.918 265.277 143.137 265.059 143.137 264.789V262.766C143.137 262.496 142.918 262.277 142.648 262.277H138.625C138.355 262.277 138.137 262.496 138.137 262.766V264.789C138.137 265.059 138.355 265.277 138.625 265.277Z" fill="#3F3D56"/>
<path d="M128.625 265.277H132.648C132.918 265.277 133.137 265.059 133.137 264.789V262.766C133.137 262.496 132.918 262.277 132.648 262.277H128.625C128.355 262.277 128.137 262.496 128.137 262.766V264.789C128.137 265.059 128.355 265.277 128.625 265.277Z" fill="#3F3D56"/>
<path d="M118.625 265.277H122.648C122.918 265.277 123.137 265.059 123.137 264.789V262.766C123.137 262.496 122.918 262.277 122.648 262.277H118.625C118.355 262.277 118.137 262.496 118.137 262.766V264.789C118.137 265.059 118.355 265.277 118.625 265.277Z" fill="#3F3D56"/>
<path d="M108.625 265.277H112.648C112.918 265.277 113.137 265.059 113.137 264.789V262.766C113.137 262.496 112.918 262.277 112.648 262.277H108.625C108.355 262.277 108.137 262.496 108.137 262.766V264.789C108.137 265.059 108.355 265.277 108.625 265.277Z" fill="#3F3D56"/>
<path d="M98.6249 265.277H102.648C102.918 265.277 103.137 265.059 103.137 264.789V262.766C103.137 262.496 102.918 262.277 102.648 262.277H98.6249C98.3553 262.277 98.1367 262.496 98.1367 262.766V264.789C98.1367 265.059 98.3553 265.277 98.6249 265.277Z" fill="#3F3D56"/>
<path d="M88.6249 265.277H92.6485C92.9181 265.277 93.1367 265.059 93.1367 264.789V262.766C93.1367 262.496 92.9181 262.277 92.6485 262.277H88.6249C88.3553 262.277 88.1367 262.496 88.1367 262.766V264.789C88.1367 265.059 88.3553 265.277 88.6249 265.277Z" fill="#3F3D56"/>
<path d="M78.6249 265.277H82.6485C82.9181 265.277 83.1367 265.059 83.1367 264.789V262.766C83.1367 262.496 82.9181 262.277 82.6485 262.277H78.6249C78.3553 262.277 78.1367 262.496 78.1367 262.766V264.789C78.1367 265.059 78.3553 265.277 78.6249 265.277Z" fill="#3F3D56"/>
<path d="M68.6249 265.277H72.6485C72.9181 265.277 73.1367 265.059 73.1367 264.789V262.766C73.1367 262.496 72.9181 262.277 72.6485 262.277H68.6249C68.3553 262.277 68.1367 262.496 68.1367 262.766V264.789C68.1367 265.059 68.3553 265.277 68.6249 265.277Z" fill="#3F3D56"/>
<path d="M218.743 270.277H222.767C223.036 270.277 223.255 270.059 223.255 269.789V267.766C223.255 267.496 223.036 267.277 222.767 267.277H218.743C218.473 267.277 218.255 267.496 218.255 267.766V269.789C218.255 270.059 218.473 270.277 218.743 270.277Z" fill="#3F3D56"/>
<path d="M208.743 270.277H212.767C213.036 270.277 213.255 270.059 213.255 269.789V267.766C213.255 267.496 213.036 267.277 212.767 267.277H208.743C208.473 267.277 208.255 267.496 208.255 267.766V269.789C208.255 270.059 208.473 270.277 208.743 270.277Z" fill="#3F3D56"/>
<path d="M198.743 270.277H202.767C203.036 270.277 203.255 270.059 203.255 269.789V267.766C203.255 267.496 203.036 267.277 202.767 267.277H198.743C198.473 267.277 198.255 267.496 198.255 267.766V269.789C198.255 270.059 198.473 270.277 198.743 270.277Z" fill="#3F3D56"/>
<path d="M188.743 270.277H192.767C193.036 270.277 193.255 270.059 193.255 269.789V267.766C193.255 267.496 193.036 267.277 192.767 267.277H188.743C188.473 267.277 188.255 267.496 188.255 267.766V269.789C188.255 270.059 188.473 270.277 188.743 270.277Z" fill="#3F3D56"/>
<path d="M178.743 270.277H182.767C183.036 270.277 183.255 270.059 183.255 269.789V267.766C183.255 267.496 183.036 267.277 182.767 267.277H178.743C178.473 267.277 178.255 267.496 178.255 267.766V269.789C178.255 270.059 178.473 270.277 178.743 270.277Z" fill="#3F3D56"/>
<path d="M168.743 270.277H172.767C173.036 270.277 173.255 270.059 173.255 269.789V267.766C173.255 267.496 173.036 267.277 172.767 267.277H168.743C168.473 267.277 168.255 267.496 168.255 267.766V269.789C168.255 270.059 168.473 270.277 168.743 270.277Z" fill="#3F3D56"/>
<path d="M158.743 270.277H162.767C163.036 270.277 163.255 270.059 163.255 269.789V267.766C163.255 267.496 163.036 267.277 162.767 267.277H158.743C158.473 267.277 158.255 267.496 158.255 267.766V269.789C158.255 270.059 158.473 270.277 158.743 270.277Z" fill="#3F3D56"/>
<path d="M148.743 270.277H152.767C153.036 270.277 153.255 270.059 153.255 269.789V267.766C153.255 267.496 153.036 267.277 152.767 267.277H148.743C148.473 267.277 148.255 267.496 148.255 267.766V269.789C148.255 270.059 148.473 270.277 148.743 270.277Z" fill="#3F3D56"/>
<path d="M138.743 270.277H142.767C143.036 270.277 143.255 270.059 143.255 269.789V267.766C143.255 267.496 143.036 267.277 142.767 267.277H138.743C138.473 267.277 138.255 267.496 138.255 267.766V269.789C138.255 270.059 138.473 270.277 138.743 270.277Z" fill="#3F3D56"/>
<path d="M128.743 270.277H132.767C133.036 270.277 133.255 270.059 133.255 269.789V267.766C133.255 267.496 133.036 267.277 132.767 267.277H128.743C128.473 267.277 128.255 267.496 128.255 267.766V269.789C128.255 270.059 128.473 270.277 128.743 270.277Z" fill="#3F3D56"/>
<path d="M118.743 270.277H122.767C123.036 270.277 123.255 270.059 123.255 269.789V267.766C123.255 267.496 123.036 267.277 122.767 267.277H118.743C118.473 267.277 118.255 267.496 118.255 267.766V269.789C118.255 270.059 118.473 270.277 118.743 270.277Z" fill="#3F3D56"/>
<path d="M108.743 270.277H112.767C113.036 270.277 113.255 270.059 113.255 269.789V267.766C113.255 267.496 113.036 267.277 112.767 267.277H108.743C108.473 267.277 108.255 267.496 108.255 267.766V269.789C108.255 270.059 108.473 270.277 108.743 270.277Z" fill="#3F3D56"/>
<path d="M98.743 270.277H102.767C103.036 270.277 103.255 270.059 103.255 269.789V267.766C103.255 267.496 103.036 267.277 102.767 267.277H98.743C98.4734 267.277 98.2549 267.496 98.2549 267.766V269.789C98.2549 270.059 98.4734 270.277 98.743 270.277Z" fill="#3F3D56"/>
<path d="M88.743 270.277H92.7667C93.0363 270.277 93.2549 270.059 93.2549 269.789V267.766C93.2549 267.496 93.0363 267.277 92.7667 267.277H88.743C88.4734 267.277 88.2549 267.496 88.2549 267.766V269.789C88.2549 270.059 88.4734 270.277 88.743 270.277Z" fill="#3F3D56"/>
<path d="M78.743 270.277H82.7667C83.0363 270.277 83.2549 270.059 83.2549 269.789V267.766C83.2549 267.496 83.0363 267.277 82.7667 267.277H78.743C78.4734 267.277 78.2549 267.496 78.2549 267.766V269.789C78.2549 270.059 78.4734 270.277 78.743 270.277Z" fill="#3F3D56"/>
<path d="M68.743 270.277H72.7667C73.0363 270.277 73.2549 270.059 73.2549 269.789V267.766C73.2549 267.496 73.0363 267.277 72.7667 267.277H68.743C68.4734 267.277 68.2549 267.496 68.2549 267.766V269.789C68.2549 270.059 68.4734 270.277 68.743 270.277Z" fill="#3F3D56"/>
<path d="M135.743 276.277H174.767C175.036 276.277 175.255 276.059 175.255 275.789V273.766C175.255 273.496 175.036 273.277 174.767 273.277H135.743C135.473 273.277 135.255 273.496 135.255 273.766V275.789C135.255 276.059 135.473 276.277 135.743 276.277Z" fill="#3F3D56"/>
<path d="M25.0313 31.6557H280.355C280.62 31.6499 280.873 31.5403 281.058 31.3506C281.244 31.1608 281.348 30.9058 281.348 30.6404C281.348 30.3749 281.244 30.1199 281.058 29.9301C280.873 29.7404 280.62 29.6308 280.355 29.625H25.0313C24.7659 29.6308 24.5134 29.7404 24.3277 29.9301C24.142 30.1199 24.0381 30.3749 24.0381 30.6404C24.0381 30.9058 24.142 31.1608 24.3277 31.3506C24.5134 31.5403 24.7659 31.6499 25.0313 31.6557Z" fill="#9E9E9E"/>
<path d="M256 22C258.209 22 260 20.2091 260 18C260 15.7909 258.209 14 256 14C253.791 14 252 15.7909 252 18C252 20.2091 253.791 22 256 22Z" fill="#E9504E"/>
<path d="M240 22C242.209 22 244 20.2091 244 18C244 15.7909 242.209 14 240 14C237.791 14 236 15.7909 236 18C236 20.2091 237.791 22 240 22Z" fill="#ECAE00"/>
<path d="M224 22C226.209 22 228 20.2091 228 18C228 15.7909 226.209 14 224 14C221.791 14 220 15.7909 220 18C220 20.2091 221.791 22 224 22Z" fill="#00D31F"/>
<path d="M36.3194 14.8913C36.3187 15.0351 36.3463 15.1776 36.4007 15.3107C36.4552 15.4438 36.5353 15.5649 36.6365 15.6671C36.7377 15.7692 36.8581 15.8504 36.9907 15.9061C37.1233 15.9617 37.2655 15.9906 37.4094 15.9913H52.0094C52.298 15.9845 52.5725 15.8652 52.7742 15.6587C52.976 15.4522 53.0889 15.1749 53.0889 14.8863C53.0889 14.5976 52.976 14.3204 52.7742 14.1139C52.5725 13.9074 52.298 13.788 52.0094 13.7812H37.4094C37.1179 13.7848 36.8397 13.9035 36.6355 14.1115C36.4312 14.3195 36.3176 14.5998 36.3194 14.8913Z" fill="#9E9E9E"/>
<path d="M36.3194 19.0397C36.3187 19.1835 36.3463 19.326 36.4007 19.4591C36.4552 19.5923 36.5352 19.7133 36.6365 19.8155C36.7377 19.9176 36.858 19.9989 36.9907 20.0545C37.1233 20.1101 37.2655 20.1391 37.4094 20.1397H52.0094C52.2982 20.1333 52.5731 20.0141 52.7751 19.8075C52.9771 19.601 53.0902 19.3236 53.0902 19.0347C53.0902 18.7458 52.9771 18.4683 52.7751 18.2618C52.5731 18.0553 52.2982 17.9361 52.0094 17.9297H37.4094C37.1179 17.9332 36.8397 18.0519 36.6355 18.2599C36.4312 18.4679 36.3176 18.7482 36.3194 19.0397Z" fill="#9E9E9E"/>
<path d="M36.3194 23.182C36.3176 23.4735 36.4312 23.7539 36.6355 23.9618C36.8397 24.1698 37.1179 24.2885 37.4094 24.292H52.0094C52.298 24.2853 52.5725 24.1659 52.7742 23.9594C52.976 23.7529 53.0889 23.4757 53.0889 23.187C53.0889 22.8984 52.976 22.6211 52.7742 22.4146C52.5725 22.2081 52.298 22.0888 52.0094 22.082H37.4094C37.2655 22.0827 37.1233 22.1116 36.9907 22.1672C36.8581 22.2229 36.7377 22.3041 36.6365 22.4062C36.5352 22.5084 36.4552 22.6295 36.4007 22.7626C36.3463 22.8957 36.3187 23.0382 36.3194 23.182Z" fill="#9E9E9E"/>
<path d="M40.8322 55.2539H35.586C33.9954 55.2539 32.7061 56.5433 32.7061 58.1339C32.7061 59.7244 33.9954 61.0138 35.586 61.0138H40.8322C42.4227 61.0138 43.7121 59.7244 43.7121 58.1339C43.7121 56.5433 42.4227 55.2539 40.8322 55.2539Z" fill="#E6E6E6"/>
<path d="M100.832 55.2539H95.586C93.9954 55.2539 92.7061 56.5433 92.7061 58.1339C92.7061 59.7244 93.9954 61.0138 95.586 61.0138H100.832C102.423 61.0138 103.712 59.7244 103.712 58.1339C103.712 56.5433 102.423 55.2539 100.832 55.2539Z" fill="#E6E6E6"/>
<path d="M117.832 55.2539H112.586C110.995 55.2539 109.706 56.5433 109.706 58.1339C109.706 59.7244 110.995 61.0138 112.586 61.0138H117.832C119.423 61.0138 120.712 59.7244 120.712 58.1339C120.712 56.5433 119.423 55.2539 117.832 55.2539Z" fill="#E6E6E6"/>
<path d="M84.5121 54.7734H51.9063C50.3158 54.7734 49.0264 56.0629 49.0264 57.6534C49.0264 59.244 50.3158 60.5334 51.9063 60.5334H84.5121C86.1026 60.5334 87.3921 59.244 87.3921 57.6534C87.3921 56.0629 86.1026 54.7734 84.5121 54.7734Z" fill="#E6E6E6"/>
<path d="M164.512 54.7734H131.906C130.316 54.7734 129.026 56.0629 129.026 57.6534C129.026 59.244 130.316 60.5334 131.906 60.5334H164.512C166.103 60.5334 167.392 59.244 167.392 57.6534C167.392 56.0629 166.103 54.7734 164.512 54.7734Z" fill="#E6E6E6"/>
<path d="M56.8322 68.2539H51.586C49.9954 68.2539 48.7061 69.5433 48.7061 71.1339C48.7061 72.7244 49.9954 74.0138 51.586 74.0138H56.8322C58.4227 74.0138 59.7121 72.7244 59.7121 71.1339C59.7121 69.5433 58.4227 68.2539 56.8322 68.2539Z" fill="#E6E6E6"/>
<path d="M116.832 68.2539H111.586C109.995 68.2539 108.706 69.5433 108.706 71.1339C108.706 72.7244 109.995 74.0138 111.586 74.0138H116.832C118.423 74.0138 119.712 72.7244 119.712 71.1339C119.712 69.5433 118.423 68.2539 116.832 68.2539Z" fill="#E6E6E6"/>
<path d="M133.832 68.2539H128.586C126.995 68.2539 125.706 69.5433 125.706 71.1339C125.706 72.7244 126.995 74.0138 128.586 74.0138H133.832C135.423 74.0138 136.712 72.7244 136.712 71.1339C136.712 69.5433 135.423 68.2539 133.832 68.2539Z" fill="#E6E6E6"/>
<path d="M100.512 67.7734H67.9063C66.3158 67.7734 65.0264 69.0629 65.0264 70.6534C65.0264 72.244 66.3158 73.5334 67.9063 73.5334H100.512C102.103 73.5334 103.392 72.244 103.392 70.6534C103.392 69.0629 102.103 67.7734 100.512 67.7734Z" fill="#E6E6E6"/>
<path d="M180.512 67.7734H147.906C146.316 67.7734 145.026 69.0629 145.026 70.6534C145.026 72.244 146.316 73.5334 147.906 73.5334H180.512C182.103 73.5334 183.392 72.244 183.392 70.6534C183.392 69.0629 182.103 67.7734 180.512 67.7734Z" fill="#E6E6E6"/>
<path d="M72.8322 81.2539H67.586C65.9954 81.2539 64.7061 82.5433 64.7061 84.1339C64.7061 85.7244 65.9954 87.0138 67.586 87.0138H72.8322C74.4227 87.0138 75.7121 85.7244 75.7121 84.1339C75.7121 82.5433 74.4227 81.2539 72.8322 81.2539Z" fill="#E6E6E6"/>
<path d="M132.832 81.2539H127.586C125.995 81.2539 124.706 82.5433 124.706 84.1339C124.706 85.7244 125.995 87.0138 127.586 87.0138H132.832C134.423 87.0138 135.712 85.7244 135.712 84.1339C135.712 82.5433 134.423 81.2539 132.832 81.2539Z" fill="#E6E6E6"/>
<path d="M149.832 81.2539H144.586C142.995 81.2539 141.706 82.5433 141.706 84.1339C141.706 85.7244 142.995 87.0138 144.586 87.0138H149.832C151.423 87.0138 152.712 85.7244 152.712 84.1339C152.712 82.5433 151.423 81.2539 149.832 81.2539Z" fill="#E6E6E6"/>
<path d="M116.512 80.7734H83.9063C82.3158 80.7734 81.0264 82.0629 81.0264 83.6534C81.0264 85.244 82.3158 86.5334 83.9063 86.5334H116.512C118.103 86.5334 119.392 85.244 119.392 83.6534C119.392 82.0629 118.103 80.7734 116.512 80.7734Z" fill="#E6E6E6"/>
<path d="M196.512 80.7734H163.906C162.316 80.7734 161.026 82.0629 161.026 83.6534C161.026 85.244 162.316 86.5334 163.906 86.5334H196.512C198.103 86.5334 199.392 85.244 199.392 83.6534C199.392 82.0629 198.103 80.7734 196.512 80.7734Z" fill="#E6E6E6"/>
<path d="M88.8322 94.2539H83.586C81.9954 94.2539 80.7061 95.5433 80.7061 97.1339C80.7061 98.7244 81.9954 100.014 83.586 100.014H88.8322C90.4227 100.014 91.7121 98.7244 91.7121 97.1339C91.7121 95.5433 90.4227 94.2539 88.8322 94.2539Z" fill="#E6E6E6"/>
<path d="M148.832 94.2539H143.586C141.995 94.2539 140.706 95.5433 140.706 97.1339C140.706 98.7244 141.995 100.014 143.586 100.014H148.832C150.423 100.014 151.712 98.7244 151.712 97.1339C151.712 95.5433 150.423 94.2539 148.832 94.2539Z" fill="#E6E6E6"/>
<path d="M165.832 94.2539H160.586C158.995 94.2539 157.706 95.5433 157.706 97.1339C157.706 98.7244 158.995 100.014 160.586 100.014H165.832C167.423 100.014 168.712 98.7244 168.712 97.1339C168.712 95.5433 167.423 94.2539 165.832 94.2539Z" fill="#E6E6E6"/>
<path d="M132.512 93.7734H99.9063C98.3158 93.7734 97.0264 95.0629 97.0264 96.6534C97.0264 98.244 98.3158 99.5334 99.9063 99.5334H132.512C134.103 99.5334 135.392 98.244 135.392 96.6534C135.392 95.0629 134.103 93.7734 132.512 93.7734Z" fill="#E6E6E6"/>
<path d="M100.832 145.949H95.586C93.9954 145.949 92.7061 147.239 92.7061 148.829C92.7061 150.42 93.9954 151.709 95.586 151.709H100.832C102.423 151.709 103.712 150.42 103.712 148.829C103.712 147.239 102.423 145.949 100.832 145.949Z" fill="#E6E6E6"/>
<path d="M117.832 145.949H112.586C110.995 145.949 109.706 147.239 109.706 148.829C109.706 150.42 110.995 151.709 112.586 151.709H117.832C119.423 151.709 120.712 150.42 120.712 148.829C120.712 147.239 119.423 145.949 117.832 145.949Z" fill="#E6E6E6"/>
<path d="M164.512 146.43H131.906C130.316 146.43 129.026 147.719 129.026 149.31C129.026 150.9 130.316 152.19 131.906 152.19H164.512C166.103 152.19 167.392 150.9 167.392 149.31C167.392 147.719 166.103 146.43 164.512 146.43Z" fill="#E6E6E6"/>
<path d="M40.8322 145.949H35.586C33.9954 145.949 32.7061 147.239 32.7061 148.829C32.7061 150.42 33.9954 151.709 35.586 151.709H40.8322C42.4227 151.709 43.7121 150.42 43.7121 148.829C43.7121 147.239 42.4227 145.949 40.8322 145.949Z" fill="#E6E6E6"/>
<path d="M84.5121 146.43H51.9063C50.3158 146.43 49.0264 147.719 49.0264 149.31C49.0264 150.9 50.3158 152.19 51.9063 152.19H84.5121C86.1026 152.19 87.3921 150.9 87.3921 149.31C87.3921 147.719 86.1026 146.43 84.5121 146.43Z" fill="#E6E6E6"/>
<path d="M56.8322 132.949H51.586C49.9954 132.949 48.7061 134.239 48.7061 135.829C48.7061 137.42 49.9954 138.709 51.586 138.709H56.8322C58.4227 138.709 59.7121 137.42 59.7121 135.829C59.7121 134.239 58.4227 132.949 56.8322 132.949Z" fill="#E6E6E6"/>
<path d="M116.832 132.949H111.586C109.995 132.949 108.706 134.239 108.706 135.829C108.706 137.42 109.995 138.709 111.586 138.709H116.832C118.423 138.709 119.712 137.42 119.712 135.829C119.712 134.239 118.423 132.949 116.832 132.949Z" fill="#E6E6E6"/>
<path d="M133.832 132.949H128.586C126.995 132.949 125.706 134.239 125.706 135.829C125.706 137.42 126.995 138.709 128.586 138.709H133.832C135.423 138.709 136.712 137.42 136.712 135.829C136.712 134.239 135.423 132.949 133.832 132.949Z" fill="#E6E6E6"/>
<path d="M100.512 133.43H67.9063C66.3158 133.43 65.0264 134.719 65.0264 136.31C65.0264 137.9 66.3158 139.19 67.9063 139.19H100.512C102.103 139.19 103.392 137.9 103.392 136.31C103.392 134.719 102.103 133.43 100.512 133.43Z" fill="#E6E6E6"/>
<path d="M72.8322 119.949H67.586C65.9954 119.949 64.7061 121.239 64.7061 122.829C64.7061 124.42 65.9954 125.709 67.586 125.709H72.8322C74.4227 125.709 75.7121 124.42 75.7121 122.829C75.7121 121.239 74.4227 119.949 72.8322 119.949Z" fill="#E6E6E6"/>
<path d="M132.832 119.949H127.586C125.995 119.949 124.706 121.239 124.706 122.829C124.706 124.42 125.995 125.709 127.586 125.709H132.832C134.423 125.709 135.712 124.42 135.712 122.829C135.712 121.239 134.423 119.949 132.832 119.949Z" fill="#E6E6E6"/>
<path d="M149.832 119.949H144.586C142.995 119.949 141.706 121.239 141.706 122.829C141.706 124.42 142.995 125.709 144.586 125.709H149.832C151.423 125.709 152.712 124.42 152.712 122.829C152.712 121.239 151.423 119.949 149.832 119.949Z" fill="#E6E6E6"/>
<path d="M116.512 120.43H83.9063C82.3158 120.43 81.0264 121.719 81.0264 123.31C81.0264 124.9 82.3158 126.19 83.9063 126.19H116.512C118.103 126.19 119.392 124.9 119.392 123.31C119.392 121.719 118.103 120.43 116.512 120.43Z" fill="#E6E6E6"/>
<path d="M88.8322 106.949H83.586C81.9954 106.949 80.7061 108.239 80.7061 109.829C80.7061 111.42 81.9954 112.709 83.586 112.709H88.8322C90.4227 112.709 91.7121 111.42 91.7121 109.829C91.7121 108.239 90.4227 106.949 88.8322 106.949Z" fill="#E6E6E6"/>
<path d="M148.832 106.949H143.586C141.995 106.949 140.706 108.239 140.706 109.829C140.706 111.42 141.995 112.709 143.586 112.709H148.832C150.423 112.709 151.712 111.42 151.712 109.829C151.712 108.239 150.423 106.949 148.832 106.949Z" fill="#E6E6E6"/>
<path d="M165.832 106.949H160.586C158.995 106.949 157.706 108.239 157.706 109.829C157.706 111.42 158.995 112.709 160.586 112.709H165.832C167.423 112.709 168.712 111.42 168.712 109.829C168.712 108.239 167.423 106.949 165.832 106.949Z" fill="#E6E6E6"/>
<path d="M132.512 107.43H99.9063C98.3158 107.43 97.0264 108.719 97.0264 110.31C97.0264 111.9 98.3158 113.19 99.9063 113.19H132.512C134.103 113.19 135.392 111.9 135.392 110.31C135.392 108.719 134.103 107.43 132.512 107.43Z" fill="#E6E6E6"/>
</svg>
