<svg xmlns="http://www.w3.org/2000/svg" xmlns:xlink="http://www.w3.org/1999/xlink" version="1.1" width="256" height="256" viewBox="0 0 256 256" xml:space="preserve">
<desc>Created with Fabric.js 1.7.22</desc>
<defs>
</defs>
<g transform="translate(128 128) scale(0.72 0.72)" style="">
	<g style="stroke: none; stroke-width: 0; stroke-dasharray: none; stroke-linecap: butt; stroke-linejoin: miter; stroke-miterlimit: 10; fill: none; fill-rule: nonzero; opacity: 1;" transform="translate(-175.05 -175.05000000000004) scale(3.89 3.89)" >
	<path d="M 47.088 3 l 0.027 1.589 l 2.093 0.634 c 6.134 1.86 10.418 7.615 10.418 13.997 v 0.16 h -29.25 v -0.16 c 0 -6.381 4.284 -12.137 10.418 -13.997 l 2.093 -0.634 L 42.912 3 H 47.088 M 47.689 0 h -5.378 c -1.308 0 -2.367 1.05 -2.389 2.353 c -7.238 2.194 -12.548 8.938 -12.548 16.868 v 0.419 h -0.627 c -0.379 0 -0.686 0.307 -0.686 0.686 v 1.369 c 0 0.379 0.307 0.686 0.686 0.686 h 36.505 c 0.379 0 0.686 -0.307 0.686 -0.686 v -1.369 c 0 -0.379 -0.307 -0.686 -0.686 -0.686 h -0.627 V 19.22 c 0 -7.93 -5.31 -14.673 -12.548 -16.868 C 50.056 1.05 48.997 0 47.689 0 L 47.689 0 z" style="stroke: none; stroke-width: 1; stroke-dasharray: none; stroke-linecap: butt; stroke-linejoin: miter; stroke-miterlimit: 10; fill: rgb(255,215,0); fill-rule: nonzero; opacity: 1;" transform=" matrix(1 0 0 1 0 0) " stroke-linecap="round" />
	<path d="M 57.472 22.189 v 2.486 c 0 6.877 -5.595 12.472 -12.472 12.472 s -12.472 -5.595 -12.472 -12.472 v -2.486 H 57.472 M 60.472 19.189 H 29.528 v 5.486 c 0 8.51 6.962 15.472 15.472 15.472 s 15.472 -6.962 15.472 -15.472 V 19.189 L 60.472 19.189 z" style="stroke: none; stroke-width: 1; stroke-dasharray: none; stroke-linecap: butt; stroke-linejoin: miter; stroke-miterlimit: 10; fill: rgb(255,215,0); fill-rule: nonzero; opacity: 1;" transform=" matrix(1 0 0 1 0 0) " stroke-linecap="round" />
	<path d="M 47.875 53.673 l -0.639 -3.615 l 1.117 -1.935 l 2.075 -3.595 c 0.568 -0.984 -0.142 -2.214 -1.278 -2.214 H 45 h -4.151 c -1.136 0 -1.847 1.23 -1.278 2.214 l 2.075 3.595 l 1.117 1.935 l -0.639 3.615 l -0.637 3.602 L 45 66.938 l 3.497 -9.751 L 47.875 53.673 z" style="stroke: none; stroke-width: 1; stroke-dasharray: none; stroke-linecap: butt; stroke-linejoin: miter; stroke-miterlimit: 10; fill: rgb(255,215,0); fill-rule: nonzero; opacity: 1;" transform=" matrix(1 0 0 1 0 0) " stroke-linecap="round" />
	<path d="M 57.423 46.412 c 10.087 2.963 17.169 12.234 17.169 22.934 V 87 H 15.409 V 69.346 c 0 -10.701 7.082 -19.972 17.169 -22.934 l 4.026 11.781 l 5.558 16.264 L 45 82.764 l 2.839 -8.307 l 5.558 -16.264 L 57.423 46.412 M 55.463 42.869 l -4.905 14.353 L 45 73.487 l -5.558 -16.264 l -4.905 -14.353 c -12.539 2.276 -22.128 13.307 -22.128 26.477 v 17.707 c 0 1.621 1.326 2.946 2.946 2.946 h 59.29 c 1.621 0 2.946 -1.326 2.946 -2.946 V 69.346 C 77.591 56.177 68.002 45.146 55.463 42.869 L 55.463 42.869 z" style="stroke: none; stroke-width: 1; stroke-dasharray: none; stroke-linecap: butt; stroke-linejoin: miter; stroke-miterlimit: 10; fill: rgb(255,215,0); fill-rule: nonzero; opacity: 1;" transform=" matrix(1 0 0 1 0 0) " stroke-linecap="round" />
</g>
</g>
</svg>