<svg width="382" height="339" viewBox="0 0 382 339" fill="none" xmlns="http://www.w3.org/2000/svg">
<g clip-path="url(#clip0_207_2)">
<path d="M122.03 40.4294C106.043 124.12 111.824 188.759 49.7628 297.579C33.7348 337.923 80.3128 353.056 99.3828 321.656C122.833 272.494 136.466 171.576 144.333 40.2464H245.873L231.903 259.316C229.404 375.966 351.393 354.797 380.783 246.226H371.354C314.264 354.656 261.274 293.116 266.894 211.056L279.243 40.9764L381.873 39.5251V-0.00390625H129.103C62.3039 2.36359 44.8389 7.70389 27.7329 40.3251L0.00292969 93.9221L9.43184 94.6478C29.5938 57.6658 50.0998 39.4978 86.2308 39.4978L122.03 40.4294Z" fill="#205AE3"/>
</g>
<defs>
<clipPath id="clip0_207_2">
<rect width="381.87" height="338.48" fill="white"/>
</clipPath>
</defs>
</svg>
