<?xml version="1.0" encoding="iso-8859-1"?>
<!-- Generator: Adobe Illustrator 19.0.0, SVG Export Plug-In . SVG Version: 6.00 Build 0)  -->
<svg version="1.1" id="Layer_1" xmlns="http://www.w3.org/2000/svg" xmlns:xlink="http://www.w3.org/1999/xlink" x="0px" y="0px"
	 viewBox="0 0 512 512" style="enable-background:new 0 0 512 512;" xml:space="preserve">
<g transform="translate(1)">
	<path style="fill:#FFDD09;" d="M468.333,226.347L255,354.347L41.667,225.493L255,89.813L468.333,226.347z"/>
	<path style="fill:#FD9808;" d="M468.333,226.347l-138.24,82.773l172.373-83.627L255,89.813l0,0L468.333,226.347z"/>
	<path style="fill:#FFFFFF;" d="M41.667,224.64L252.44,90.667L7.533,225.493l177.493,86.187L41.667,224.64z"/>
	<path style="fill:#FFDD09;" d="M255,345.813l-128-74.24v72.533c0,18.773,10.24,35.84,23.893,44.373l14.507,8.533
		c56.32,34.133,123.733,34.133,180.053,0l14.507-8.533c13.653-8.533,23.893-25.6,23.893-44.373v-72.533L255,345.813z"/>
	<path style="fill:#FFFFFF;" d="M150.893,388.48C137.24,379.947,127,362.88,127,344.107V283.52l-25.6-12.8v72.533
		c0,18.773,11.947,35.84,28.16,44.373l17.067,8.533c34.133,17.067,70.827,25.6,108.373,25.6c-30.72,0-61.44-8.533-90.453-25.6
		L150.893,388.48z"/>
	<path style="fill:#FD9808;" d="M383,284.373v60.587c0,18.773-10.24,35.84-23.893,44.373l-14.507,8.533
		c-28.16,17.067-58.88,25.6-90.453,25.6c36.693,0,74.24-8.533,108.373-25.6l17.067-8.533c17.067-8.533,28.16-25.6,28.16-44.373
		v-72.533L383,284.373z"/>
	<g>
		<path style="fill:#FCC309;" d="M289.133,217.813c0,14.507-15.36,25.6-34.133,25.6s-34.133-11.093-34.133-25.6
			c0-14.507,15.36-25.6,34.133-25.6S289.133,203.307,289.133,217.813"/>
		<path style="fill:#FCC309;" d="M17.773,381.653l23.893-53.76l23.893,53.76c6.827,15.36-4.267,32.427-20.48,32.427h-5.973
			C22.04,414.08,10.947,397.013,17.773,381.653"/>
	</g>
	<g>
		<path style="fill:#020001;" d="M255,354.347c-0.853,0-2.56,0-3.413-0.853L4.12,233.173C0.707,232.32-1,228.907-1,226.347
			c0-3.413,1.707-5.973,4.267-7.68l247.467-135.68c2.56-1.707,5.973-1.707,8.533,0l247.467,135.68
			c2.56,1.707,4.267,4.267,4.267,7.68s-1.707,5.973-5.12,7.68l-247.467,120.32C257.56,354.347,255.853,354.347,255,354.347z
			 M26.307,225.493L255,336.427l228.693-110.933L255,99.2L26.307,225.493z"/>
		<path style="fill:#020001;" d="M41.667,336.427c-5.12,0-8.533-3.413-8.533-8.533V242.56c0-4.267,3.413-7.68,7.68-8.533
			l213.333-25.6c4.267-0.853,8.533,2.56,9.387,7.68c0.853,4.267-2.56,8.533-7.68,9.387L50.2,250.24v77.653
			C50.2,333.013,46.787,336.427,41.667,336.427z"/>
		<path style="fill:#020001;" d="M45.08,422.613h-5.973c-11.093,0-20.48-5.12-26.453-14.507c-5.973-9.387-6.827-20.48-2.56-29.867
			l0,0l23.893-52.907c1.707-3.413,4.267-5.12,7.68-5.12l0,0c3.413,0,6.827,1.707,7.68,5.12l23.893,53.76
			c4.267,9.387,3.413,20.48-2.56,29.867S55.32,422.613,45.08,422.613z M25.453,385.067c-1.707,4.267-1.707,9.387,0.853,13.653
			c2.56,4.267,7.68,6.827,12.8,6.827h5.973c5.12,0,9.387-2.56,11.947-6.827c2.56-4.267,3.413-9.387,0.853-13.653l-16.213-35.84
			L25.453,385.067z"/>
		<path style="fill:#020001;" d="M255,430.293c-38.4,0-76.8-8.533-111.787-26.453l-17.067-8.533
			c-20.48-10.24-33.28-30.72-33.28-52.053V270.72c0-2.56,1.707-5.973,4.267-6.827c2.56-1.707,5.973-1.707,8.533-0.853L255,336.427
			l150.187-72.533c2.56-0.853,5.973-0.853,8.533,0.853s4.267,4.267,4.267,6.827v72.533c0,21.333-12.8,41.813-33.28,52.053
			l-17.067,8.533C331.8,421.76,293.4,430.293,255,430.293z M109.933,285.227v58.88c0,14.507,9.387,29.013,23.893,36.693
			l17.067,8.533c65.707,32.427,143.36,32.427,209.067,0l17.067-8.533c14.507-6.827,23.893-21.333,23.893-36.693v-58.88
			l-141.653,68.267c-2.56,0.853-5.12,0.853-7.68,0L109.933,285.227z"/>
	</g>
	<path style="fill:#1A1718;" d="M255,251.947c-23.893,0-42.667-15.36-42.667-34.133S231.107,183.68,255,183.68
		s42.667,15.36,42.667,34.133S278.893,251.947,255,251.947z M255,200.747c-13.653,0-25.6,7.68-25.6,17.067
		s11.947,17.067,25.6,17.067s25.6-7.68,25.6-17.067S268.653,200.747,255,200.747z"/>
</g>
<g>
</g>
<g>
</g>
<g>
</g>
<g>
</g>
<g>
</g>
<g>
</g>
<g>
</g>
<g>
</g>
<g>
</g>
<g>
</g>
<g>
</g>
<g>
</g>
<g>
</g>
<g>
</g>
<g>
</g>
</svg>
