<svg xmlns="http://www.w3.org/2000/svg" xmlns:xlink="http://www.w3.org/1999/xlink" version="1.1" width="256" height="256" viewBox="0 0 256 256" xml:space="preserve">
<desc>Created with Fabric.js 1.7.22</desc>
<defs>
</defs>
<g transform="translate(128 128) scale(0.72 0.72)" style="">
	<g style="stroke: none; stroke-width: 0; stroke-dasharray: none; stroke-linecap: butt; stroke-linejoin: miter; stroke-miterlimit: 10; fill: none; fill-rule: nonzero; opacity: 1;" transform="translate(-175.05 -175.05000000000004) scale(3.89 3.89)" >
	<path d="M 56.766 67.68 c -2.117 0 -4.538 1.633 -5.513 3.716 c -0.233 0.501 -0.018 1.096 0.482 1.33 c 0.504 0.233 1.097 0.018 1.33 -0.482 c 0.649 -1.39 2.344 -2.563 3.7 -2.563 c 0.247 0 0.69 0.045 0.884 0.349 c 0.187 0.296 0.144 0.807 -0.119 1.368 c -0.502 1.074 -1.684 2.073 -2.874 2.43 c -0.528 0.158 -0.829 0.716 -0.671 1.245 c 0.13 0.434 0.527 0.713 0.958 0.713 c 0.095 0 0.191 -0.014 0.287 -0.042 c 1.75 -0.523 3.364 -1.897 4.111 -3.499 c 0.562 -1.201 0.561 -2.399 -0.005 -3.288 C 58.813 68.133 57.9 67.68 56.766 67.68 z" style="stroke: none; stroke-width: 1; stroke-dasharray: none; stroke-linecap: butt; stroke-linejoin: miter; stroke-miterlimit: 10; fill: rgb(255,215,0); fill-rule: nonzero; opacity: 1;" transform=" matrix(1 0 0 1 0 0) " stroke-linecap="round" />
	<path d="M 81.555 60.518 c -0.6 -0.902 -1.603 -1.44 -2.686 -1.44 H 40.703 c -2.605 0 -4.941 1.552 -5.95 3.954 l -5.106 12.156 H 8.905 c -0.011 0 -0.02 0.006 -0.031 0.006 c -0.116 0.003 -0.229 0.025 -0.338 0.068 c -0.02 0.008 -0.037 0.019 -0.057 0.029 c -0.044 0.021 -0.089 0.038 -0.13 0.066 c -0.043 0.029 -0.078 0.065 -0.115 0.099 c -0.016 0.014 -0.033 0.025 -0.047 0.041 c -0.078 0.081 -0.138 0.173 -0.185 0.274 c -0.011 0.023 -0.018 0.046 -0.027 0.069 c -0.041 0.11 -0.07 0.226 -0.07 0.347 v 1.569 c 0 2.641 1.576 5.001 4.014 6.013 l 14.828 6.152 c 0 0 0 0 0.001 0 l 0.006 0.002 C 26.877 89.975 27.007 90 27.137 90 h 45.138 c 0.553 0 1 -0.447 1 -1 v -5.053 l 8.567 -20.394 C 82.262 62.555 82.155 61.421 81.555 60.518 z M 13.929 77.188 h 14.878 L 26.6 82.44 L 13.929 77.188 z M 9.905 77.757 v -0.072 l 16.232 6.728 v 3.09 l -13.451 -5.581 C 10.996 81.221 9.905 79.586 9.905 77.757 z M 71.275 88 H 28.137 v -3.255 h 43.138 V 88 z M 79.998 62.777 L 71.61 82.745 H 28.642 l 7.955 -18.938 c 0.697 -1.658 2.309 -2.729 4.106 -2.729 h 38.165 c 0.418 0 0.79 0.199 1.02 0.548 C 80.12 61.973 80.161 62.393 79.998 62.777 z" style="stroke: none; stroke-width: 1; stroke-dasharray: none; stroke-linecap: butt; stroke-linejoin: miter; stroke-miterlimit: 10; fill: rgb(255,215,0); fill-rule: nonzero; opacity: 1;" transform=" matrix(1 0 0 1 0 0) " stroke-linecap="round" />
	<path d="M 35.13 26.072 c 0.147 0.077 0.306 0.113 0.461 0.113 c 0.361 0 0.709 -0.196 0.888 -0.538 c 0.255 -0.49 0.065 -1.094 -0.424 -1.349 c -1.828 -0.954 -3.684 -0.954 -5.514 0 c -0.49 0.255 -0.68 0.859 -0.424 1.349 c 0.255 0.489 0.859 0.68 1.349 0.424 C 32.7 25.428 33.897 25.429 35.13 26.072 z" style="stroke: none; stroke-width: 1; stroke-dasharray: none; stroke-linecap: butt; stroke-linejoin: miter; stroke-miterlimit: 10; fill: rgb(255,215,0); fill-rule: nonzero; opacity: 1;" transform=" matrix(1 0 0 1 0 0) " stroke-linecap="round" />
	<path d="M 44.777 24.298 c -1.83 -0.954 -3.685 -0.954 -5.514 0 c -0.49 0.255 -0.68 0.859 -0.424 1.349 c 0.256 0.489 0.86 0.68 1.349 0.424 c 1.233 -0.643 2.43 -0.644 3.664 0 c 0.147 0.077 0.306 0.113 0.461 0.113 c 0.361 0 0.709 -0.196 0.888 -0.538 C 45.457 25.158 45.267 24.554 44.777 24.298 z" style="stroke: none; stroke-width: 1; stroke-dasharray: none; stroke-linecap: butt; stroke-linejoin: miter; stroke-miterlimit: 10; fill: rgb(255,215,0); fill-rule: nonzero; opacity: 1;" transform=" matrix(1 0 0 1 0 0) " stroke-linecap="round" />
	<path d="M 42.923 32.97 H 32.395 c -0.379 0 -0.726 0.215 -0.895 0.554 c -0.169 0.34 -0.131 0.746 0.097 1.049 c 1.937 2.563 3.971 3.865 6.045 3.869 c 0.002 0 0.005 0 0.008 0 c 2.076 0 4.118 -1.301 6.069 -3.866 c 0.23 -0.302 0.269 -0.709 0.1 -1.05 C 43.65 33.186 43.303 32.97 42.923 32.97 z M 37.65 36.442 c -0.001 0 -0.003 0 -0.005 0 c -0.977 -0.002 -1.993 -0.496 -3.036 -1.472 H 40.7 C 39.65 35.948 38.629 36.442 37.65 36.442 z" style="stroke: none; stroke-width: 1; stroke-dasharray: none; stroke-linecap: butt; stroke-linejoin: miter; stroke-miterlimit: 10; fill: rgb(255,215,0); fill-rule: nonzero; opacity: 1;" transform=" matrix(1 0 0 1 0 0) " stroke-linecap="round" />
	<path d="M 23.962 59.584 c 0 0 -0.001 0 -0.001 0 c -0.552 0 -0.999 0.447 -1 0.999 c -0.002 1.819 -0.006 9.342 0.007 9.649 c 0.023 0.536 0.465 0.952 0.998 0.952 c 0.012 0 0.025 0 0.038 -0.001 c 0.549 -0.021 0.979 -0.483 0.963 -1.033 c -0.01 -0.343 -0.009 -6.967 -0.006 -9.565 C 24.961 60.033 24.514 59.585 23.962 59.584 z" style="stroke: none; stroke-width: 1; stroke-dasharray: none; stroke-linecap: butt; stroke-linejoin: miter; stroke-miterlimit: 10; fill: rgb(255,215,0); fill-rule: nonzero; opacity: 1;" transform=" matrix(1 0 0 1 0 0) " stroke-linecap="round" />
	<path d="M 12.086 30.056 h 4.245 c 0.552 0 1 -0.448 1 -1 v -6.652 c 0 -1.37 -0.893 -2.524 -2.122 -2.943 v -8.638 l 9.03 2.967 v 3.974 c 0 0.006 0.003 0.011 0.003 0.016 c 0 0.007 -0.003 0.013 -0.003 0.02 l 0.192 5.27 h -0.61 c -1.387 0 -2.516 1.129 -2.516 2.516 v 2.505 c 0 2.636 1.656 4.99 4.075 5.942 c 0.818 2.606 2.294 4.947 4.253 6.812 l -0.029 1.209 c 0 0.308 -0.042 0.612 -0.125 0.908 l -5.426 2.151 l -4.168 1.652 c -3.727 0.677 -6.421 3.715 -6.421 7.262 v 16.162 c 0 0.553 0.448 1 1 1 s 1 -0.447 1 -1 V 54.026 c 0 -2.512 1.915 -4.664 4.583 -5.237 l 17.171 8.296 c 0.006 0.003 0.013 0.002 0.019 0.004 c 0.128 0.059 0.265 0.092 0.406 0.093 c 0.003 0 0.006 0.002 0.009 0.002 c 0 0 0 0 0 0 s 0 0 0 0 c 0.003 0 0.006 -0.002 0.009 -0.002 c 0.141 -0.001 0.278 -0.034 0.406 -0.093 c 0.006 -0.003 0.013 -0.001 0.019 -0.004 l 17.175 -8.297 c 2.672 0.57 4.591 2.726 4.591 5.291 c 0 0.553 0.447 0.974 1 0.974 s 1 -0.473 1 -1.025 c 0 -3.548 -2.697 -6.582 -6.425 -7.258 l -9.571 -3.794 c -0.086 -0.302 -0.145 -0.612 -0.145 -0.944 l -0.027 -1.177 c 1.966 -1.867 3.447 -4.214 4.265 -6.827 c 2.412 -0.955 4.061 -3.307 4.061 -5.938 v -2.503 c 0 -1.387 -1.129 -2.516 -2.517 -2.516 h -0.592 l 0.204 -5.267 c 0 -0.007 -0.003 -0.013 -0.003 -0.02 c 0 -0.007 0.004 -0.012 0.004 -0.019 V 13.78 l 9.784 -3.215 c 0.728 -0.239 1.217 -0.914 1.217 -1.68 c 0.001 -0.766 -0.488 -1.442 -1.216 -1.682 L 40.229 0.414 c -1.682 -0.552 -3.46 -0.552 -5.14 0 L 14.425 7.203 c -0.728 0.24 -1.217 0.915 -1.217 1.682 c 0 0.001 0 0.002 0 0.003 V 19.46 c -1.23 0.419 -2.123 1.573 -2.123 2.943 v 6.652 C 11.086 29.608 11.534 30.056 12.086 30.056 z M 23.306 28.091 v -2.505 c 0 -0.285 0.231 -0.516 0.516 -0.516 h 0.683 l 0.202 5.536 c 0.022 0.259 0.059 0.515 0.093 0.771 C 23.879 30.558 23.306 29.374 23.306 28.091 z M 22.645 47.823 l 7.202 -2.855 l 5.256 8.874 L 22.645 47.823 z M 40.203 53.842 l 5.256 -8.874 l 7.203 2.856 L 40.203 53.842 z M 43.959 43.576 l -6.306 10.646 l -6.299 -10.634 c 0.117 -0.387 0.191 -0.778 0.216 -1.173 c 1.109 0.766 2.319 1.406 3.621 1.876 c 0.792 0.286 1.619 0.431 2.459 0.432 c 0.001 0 0.002 0 0.003 0 c 0.001 0 0.002 0 0.003 0 c 0.006 0 0.011 0 0.017 0 c 0.001 0 0.002 0 0.003 0 c 0.001 0 0.002 0 0.003 0 c 0.84 -0.001 1.667 -0.146 2.459 -0.432 c 1.298 -0.469 2.504 -1.106 3.61 -1.869 C 43.775 42.815 43.846 43.199 43.959 43.576 z M 39.458 42.41 c -0.575 0.208 -1.175 0.313 -1.785 0.313 c -0.001 0 -0.002 0 -0.002 0 c -0.581 0.019 -1.22 -0.104 -1.799 -0.313 c -5.118 -1.849 -8.718 -6.548 -9.169 -11.924 l -0.434 -11.91 c 7.572 -1.477 15.235 -1.477 22.806 0 l -0.46 11.908 c 0 0.012 0.005 0.021 0.005 0.033 C 48.139 35.907 44.552 40.569 39.458 42.41 z M 51.495 25.07 c 0.285 0 0.517 0.231 0.517 0.516 v 2.503 c 0 1.277 -0.568 2.457 -1.481 3.276 c 0.033 -0.252 0.07 -0.504 0.091 -0.76 c 0.002 -0.024 -0.008 -0.045 -0.008 -0.068 l 0.211 -5.467 H 51.495 z M 35.713 2.314 c 1.273 -0.419 2.619 -0.419 3.892 0 l 19.995 6.57 l -8.493 2.79 v -1.338 c 0 -0.034 -0.016 -0.063 -0.019 -0.096 c -0.007 -0.068 -0.019 -0.13 -0.039 -0.194 c -0.019 -0.062 -0.041 -0.12 -0.072 -0.176 c -0.03 -0.056 -0.064 -0.105 -0.104 -0.155 C 50.832 9.665 50.79 9.62 50.74 9.578 c -0.048 -0.04 -0.099 -0.073 -0.154 -0.104 c -0.059 -0.033 -0.118 -0.058 -0.184 -0.079 c -0.032 -0.01 -0.056 -0.031 -0.089 -0.038 c -2.214 -0.463 -4.457 -0.809 -6.669 -1.028 c -0.556 -0.059 -1.04 0.348 -1.094 0.896 c -0.054 0.55 0.347 1.04 0.896 1.094 c 1.878 0.186 3.777 0.482 5.661 0.851 v 5.394 c -7.595 -1.438 -15.274 -1.436 -22.869 0 v -5.395 c 3.796 -0.743 7.633 -1.135 11.42 -1.136 c 0.553 0 1 -0.448 1 -1 c 0 -0.553 -0.448 -1 -1 -1 C 33.47 8.035 29.222 8.48 25.034 9.357 c -0.033 0.007 -0.057 0.028 -0.088 0.038 c -0.066 0.021 -0.126 0.046 -0.185 0.08 c -0.056 0.031 -0.107 0.064 -0.155 0.104 c -0.049 0.041 -0.091 0.086 -0.132 0.136 c -0.041 0.05 -0.076 0.1 -0.106 0.157 c -0.03 0.055 -0.051 0.112 -0.07 0.173 c -0.02 0.065 -0.033 0.129 -0.04 0.198 c -0.003 0.032 -0.019 0.061 -0.019 0.094 v 1.348 l -8.522 -2.8 L 35.713 2.314 z M 13.086 22.404 c 0 -0.619 0.504 -1.123 1.123 -1.123 c 0.619 0 1.123 0.503 1.123 1.123 v 5.652 h -2.246 V 22.404 z" style="stroke: none; stroke-width: 1; stroke-dasharray: none; stroke-linecap: butt; stroke-linejoin: miter; stroke-miterlimit: 10; fill: rgb(255,215,0); fill-rule: nonzero; opacity: 1;" transform=" matrix(1 0 0 1 0 0) " stroke-linecap="round" />
</g>
</g>
</svg>