<svg xmlns="http://www.w3.org/2000/svg" xmlns:xlink="http://www.w3.org/1999/xlink" version="1.1" width="256" height="256" viewBox="0 0 256 256" xml:space="preserve">
<desc>Created with Fabric.js 1.7.22</desc>
<defs>
</defs>
<g transform="translate(128 128) scale(0.72 0.72)" style="">
	<g style="stroke: none; stroke-width: 0; stroke-dasharray: none; stroke-linecap: butt; stroke-linejoin: miter; stroke-miterlimit: 10; fill: none; fill-rule: nonzero; opacity: 1;" transform="translate(-175.05 -175.05000000000004) scale(3.89 3.89)" >
	<path d="M 57.113 42.061 c -0.278 -0.478 -0.889 -0.639 -1.368 -0.361 l -7.698 4.485 c -1.009 -0.98 -2.561 -1.219 -3.838 -0.525 l -2.378 1.293 c -0.008 0.004 -0.012 0.012 -0.02 0.017 s -0.016 0.004 -0.024 0.009 l -8.251 5.043 c -3.168 -2.674 -6.69 -4.392 -10.226 -4.982 c 0 0 -0.001 0 -0.001 0 c -1.076 -0.181 -1.856 -1.017 -1.857 -2.01 l -0.014 -0.603 c 1.791 -1.755 2.947 -4.122 3.163 -6.706 c 0 -0.003 -0.001 -0.006 -0.001 -0.01 c 0 -0.004 0.002 -0.006 0.003 -0.01 l 0.301 -4.686 c 1.709 -2.635 2.262 -5.012 1.625 -7.064 c -0.581 -1.869 -2.133 -3.433 -4.624 -4.663 c 0.175 -0.098 0.388 -0.207 0.647 -0.326 c 0.367 -0.168 0.596 -0.541 0.582 -0.944 c -0.015 -0.403 -0.27 -0.758 -0.648 -0.9 c -4.751 -1.786 -10.798 -1.565 -13.793 2.866 c -1.594 0.634 -2.754 1.809 -3.287 3.341 c -0.756 2.175 -0.203 4.893 1.539 7.678 l 0.285 4.718 c 0.216 2.584 1.373 4.952 3.164 6.707 l -0.015 0.625 c 0 0.971 -0.781 1.807 -1.856 1.987 l -4.027 0.679 C 1.891 48.157 0 50.273 0 52.751 v 18.183 c 0 0.553 0.448 1 1 1 h 25.887 c 0.268 0 0.523 -0.107 0.711 -0.297 c 0.188 -0.19 0.292 -0.448 0.289 -0.716 L 27.754 60.29 l 5.404 1.262 c 0.282 0.066 0.577 0.007 0.812 -0.162 l 11.627 -8.364 c 0.001 0 0.001 0 0.002 -0.001 l 2.227 -1.56 c 1.168 -0.818 1.623 -2.265 1.256 -3.567 l 7.672 -4.47 C 57.229 43.15 57.391 42.538 57.113 42.061 z M 7.296 25.981 c 0.367 -1.057 1.189 -1.827 2.375 -2.227 c 0.221 -0.075 0.408 -0.224 0.531 -0.421 c 1.446 -2.335 3.994 -3.267 6.698 -3.267 c 0.949 0 1.918 0.115 2.865 0.324 c -0.303 0.312 -0.49 0.637 -0.574 0.988 c -0.116 0.484 0.142 0.979 0.604 1.162 c 2.708 1.072 4.331 2.419 4.823 4.003 c 0.263 0.848 0.216 1.813 -0.137 2.887 c -0.083 -0.124 -0.179 -0.235 -0.291 -0.333 c -0.372 -0.327 -0.859 -0.455 -1.34 -0.364 c -1.696 0.264 -3.567 0.391 -5.738 -0.438 c -2.519 -1.055 -5.689 -2.089 -7.866 -0.731 c -0.767 0.478 -1.34 1.188 -1.728 2.144 C 7.013 28.311 6.93 27.033 7.296 25.981 z M 9.226 37.576 L 8.932 32.71 c 0.113 -1.789 0.575 -2.951 1.374 -3.45 c 1.419 -0.883 4.123 0.08 6.064 0.891 c 2.508 0.96 4.681 0.864 6.521 0.598 c 0.056 0.263 0.096 0.799 0.033 1.886 c 0 0 0 0.001 0 0.001 l -0.316 4.919 c -0.281 3.348 -2.503 6.248 -5.663 7.391 c 0 0 0 0 0 0 c -0.331 0.119 -0.677 0.18 -1.028 0.18 c -0.351 0 -0.697 -0.061 -1.028 -0.18 C 11.727 43.803 9.504 40.901 9.226 37.576 z M 14.208 46.827 c 0.55 0.198 1.125 0.299 1.708 0.299 c 0.583 0 1.157 -0.101 1.707 -0.299 c 0 0 0.001 0 0.001 0 c 0.685 -0.248 1.319 -0.584 1.925 -0.957 c 0.231 1.048 0.898 1.95 1.83 2.529 l -5.463 5.589 l -5.463 -5.589 c 0.936 -0.58 1.604 -1.483 1.833 -2.527 C 12.892 46.245 13.524 46.58 14.208 46.827 z M 33.17 59.501 l -6.205 -1.449 c -0.299 -0.069 -0.614 0.002 -0.854 0.194 s -0.377 0.484 -0.374 0.792 l 0.137 10.896 H 9.689 v -6.98 c 0 -0.553 -0.448 -1 -1 -1 s -1 0.447 -1 1 v 6.98 H 2 V 52.751 c 0 -1.497 1.189 -2.784 2.828 -3.061 l 3.511 -0.592 l 6.862 7.02 c 0.188 0.192 0.446 0.301 0.715 0.301 s 0.527 -0.108 0.715 -0.301 l 6.844 -7.002 c 3.21 0.644 6.412 2.317 9.292 4.886 c 0.329 0.294 0.811 0.338 1.187 0.107 l 8.029 -4.906 l 1.699 2.735 L 33.17 59.501 z M 46.678 49.826 l -1.361 0.953 l -1.599 -2.575 l 1.448 -0.787 c 0.568 -0.309 1.274 -0.143 1.646 0.388 l 0.177 0.252 c 0.195 0.277 0.271 0.615 0.211 0.949 C 47.141 49.341 46.955 49.632 46.678 49.826 z" style="stroke: none; stroke-width: 1; stroke-dasharray: none; stroke-linecap: butt; stroke-linejoin: miter; stroke-miterlimit: 10; fill: rgb(255,215,0); fill-rule: nonzero; opacity: 1;" transform=" matrix(1 0 0 1 0 0) " stroke-linecap="round" />
	<path d="M 83.582 70.904 H 39.363 c -3.539 0 -6.417 -2.879 -6.417 -6.418 c 0 -0.553 0.448 -1 1 -1 s 1 0.447 1 1 c 0 2.437 1.981 4.418 4.417 4.418 h 44.219 c 2.437 0 4.418 -1.981 4.418 -4.418 V 24.484 c 0 -2.436 -1.981 -4.418 -4.418 -4.418 H 39.363 c -2.436 0 -4.417 1.982 -4.417 4.418 v 21.778 c 0 0.553 -0.448 1 -1 1 s -1 -0.447 -1 -1 V 24.484 c 0 -3.539 2.879 -6.418 6.417 -6.418 h 44.219 c 3.539 0 6.418 2.879 6.418 6.418 v 40.002 C 90 68.025 87.121 70.904 83.582 70.904 z" style="stroke: none; stroke-width: 1; stroke-dasharray: none; stroke-linecap: butt; stroke-linejoin: miter; stroke-miterlimit: 10; fill: rgb(255,215,0); fill-rule: nonzero; opacity: 1;" transform=" matrix(1 0 0 1 0 0) " stroke-linecap="round" />
</g>
</g>
</svg>